<svg id="Layer_1" data-name="Layer 1" xmlns="http://www.w3.org/2000/svg" viewBox="0 0 40.2 36.61"><defs><style>.cls-1{fill:#62bb46;fill-rule:evenodd;}</style></defs><title>wallet</title><path class="cls-1" d="M353.1,137.61l-2.31-.49c-0.37-2.45-.37-2.45-2.91-2.45H319.74a2.59,2.59,0,1,0,0,5.14h30.8a3.71,3.71,0,0,1,4,4c0,2.38,0,4.76,0,7.31h-1.06c-2.58,0-5.15,0-7.72,0a3.81,3.81,0,0,0-.83,7.54,7.61,7.61,0,0,0,1.61.1h7.91c0,2.47.15,4.86,0,7.21-0.14,1.72-1.89,2.84-3.88,2.84H321A6.82,6.82,0,0,1,316.3,167a5.45,5.45,0,0,1-1.92-4.28c0-8.3,0-16.59,0-24.89,0-3.42,2.19-5.48,6-5.55s7.44,0,11.16,0c5.56,0,11.13.11,16.69,0C351.75,132.06,353.6,134,353.1,137.61Z" transform="translate(-314.38 -132.16)"/><path class="cls-1" d="M348.36,136.07v2.32H320.78v-2.32h27.59Z" transform="translate(-314.38 -132.16)"/><path class="cls-1" d="M347,157.37a2.41,2.41,0,0,1-2.42-2.51,2.44,2.44,0,0,1,2.51-2.44,2.49,2.49,0,0,1,2.44,2.53A2.45,2.45,0,0,1,347,157.37Z" transform="translate(-314.38 -132.16)"/></svg>