<?xml version="1.0" encoding="utf-8"?>
<!-- Generator: Adobe Illustrator 21.0.0, SVG Export Plug-In . SVG Version: 6.00 Build 0)  -->
<svg version="1.1" id="Layer_1" xmlns="http://www.w3.org/2000/svg" xmlns:xlink="http://www.w3.org/1999/xlink" x="0px" y="0px"
	 viewBox="0 0 612 792" style="enable-background:new 0 0 612 792;" xml:space="preserve">
<style type="text/css">
	.st0{fill:#A8A8A8;}
</style>
<g>
	<g>
		<path class="st0" d="M343,367.5c-1.5,0.7-3.1,2.2-3.8,3.7c-1.3,2.7-2.2,5.7-2.9,8.6c-5.7,25.2-11.3,50.4-16.9,75.6
			c-0.9,4.1-1.5,8.2-2,12.4c-0.3,3,1.3,4.4,4.5,4.5c3.6,0.1,6.1-1.3,7.3-4.8c1.3-3.5,2.4-7.1,3.3-10.7c4.8-20.9,9.4-41.9,14.1-62.8
			c1.6-7.1,3-14.2,4.5-21.3C351.3,367.5,347.9,365.2,343,367.5z"/>
		<path class="st0" d="M558.8,291.2c-10.3,9.1-8.5,8.1-16,11.5c-5.3,2.4-14.2,4.9-34.2,2.4c-13.3-1.7-31.7-7.6-39.8-22.8
			c-5.2-9.9-6.8-22.4-6.8-22.4c-0.2-9.1-1.5-14.9,11.8-30.7c10.2-12.2,17.9-16.9,22-20.9c7.9-7.5,20.4-15.6,28-31.5
			c3-6.4,7.5-27-1.3-53C509.3,84.4,476,74,476,74s31.5,38.7,28.9,62.6c-1.8,16.5-13.6,41.6-50.3,46.5c-15.2,2-47.7-11.7-57.2-21.7
			c-13.7-14.5-22.2-33.5-25.1-56.1c-1.6-12.3,0.4-37,8.2-48.6C397.8,31,436.8,25,436.8,25s-45.2-9.7-75.1,10.2
			c-18.5,12.3-44.4,33.5-33.4,86.8c3.6,17.6,29.2,65.1,28.9,88.4c-0.2,17.8-8.7,72.8-45.9,79.7c-17,3.2-25.8,1.9-35.4-2.8
			c-36.3-17.9-32.8-75.3-28-96.2c8.1-35.1,12.6-61.5-1.4-99.6c-9-24.8-22-32.3-32-43.3c-9-10.2-52.8-38.8-59.2-43
			c6.4,5.6,44.5,54.4,50.4,78.4c10.7,44.1-13,76.9-28.6,92.2c-18.5,18.2-28.2,24.7-39.9,38.9c-12.3,14.8-32.9,38.3-42.2,58.2
			l-0.4-0.1c-0.1-1-0.4-1.8-0.8-2.3c-2.7-3.5-7.6-12.1-9.3-14c-25.3-28.2-71.2-14-77.3-12.9c5.5,0.5,45.3,5.1,54.9,33.7
			c8.8,26.2,10.5,54.3,10.8,68.1c-1.2,9.9-1.9,20-1.9,30.3c0,135.8,110,245.8,245.8,245.8c103.9,0,192.8-64.5,228.7-155.7
			c7.4-17,18.9-49.8,22.8-96.9c0.9-11.2-0.2-34.6,7.4-54.4c9.7-25,29.4-31.8,29.4-31.8S583,270.1,558.8,291.2z M256.6,493.3
			c-0.2,0.9-0.4,1.5-1.6,1.4c-13.8,0-27.7,0-41.5,0c-0.2,0-0.4-0.1-0.8-0.2c4.6-20.9,9.3-41.7,13.9-62.7c-4.4,0-8.6,0-12.9,0
			c-1.4,6.1-2.7,12.2-4.1,18.3c-3.2,14.4-6.4,28.8-9.6,43.2c-0.2,0.9-0.5,1.4-1.6,1.4c-13.8,0-27.5,0-41.3,0c-0.3,0-0.5-0.1-0.9-0.2
			c1.2-5.4,2.4-10.7,3.6-16c8.1-36.3,16.2-72.7,24.2-109c1.7-7.8,3.5-15.6,5.2-23.4c0.2-0.9,0.4-1.4,1.6-1.4c13.8,0,27.7,0,41.5,0
			c0.2,0,0.4,0.1,0.8,0.2c-3.9,17.7-7.9,35.4-11.8,53.3c4.4,0,8.6,0,12.9,0c4-17.8,7.9-35.6,11.9-53.4c14.6,0,29,0,43.6,0
			c-1,4.8-2.1,9.4-3.1,14c-8.6,38.9-17.3,77.8-25.9,116.6C259.2,481.5,257.8,487.4,256.6,493.3z M393,377.5
			c-3.5,18.8-7.5,37.5-11.6,56.1c-1.9,8.9-4.2,17.7-6.7,26.5c-4.8,17.4-16.9,28.4-34.6,34.2c-7.5,2.5-15.3,3.3-23.1,3.4
			c-8.4,0-16.6-1-24.2-4.2c-12.6-5.3-19.9-17.1-17.6-30c3-16.7,6.4-33.3,10-49.9c2.5-11.7,5.4-23.3,8.5-34.9
			c4.6-17,16.3-28,33.5-33.7c14.4-4.8,29.2-5.3,43.9-1.1C387.6,348.8,396,361.6,393,377.5z M497.1,374.8c-8.6,0-17.1,0-25.8,0
			c-8.9,40-17.8,79.9-26.7,119.9c-14.5,0-28.9,0-43.6,0c8.9-39.9,17.7-79.7,26.7-119.9c-8.7,0-17.1,0-25.7,0
			c2.2-10.1,4.4-19.9,6.6-29.9c31.7,0,63.3,0,95.1,0C501.6,354.9,499.4,364.7,497.1,374.8z"/>
	</g>
	<path class="st0" d="M112.5,190.7c0,0-13.8-12.7-17.3-21.9c-4.4-11.8-0.4-21.5,4.1-28.8c12.2-19.4,25.2-28.8,28.3-38.7
		C133.7,82,117,56.4,117,56.4s27.8,32.1,34,46.8c4.2,10,11.2,32-4.4,45.9c-7.5,6.6-27.2,11.9-31.7,23.1
		C111.8,179.6,112.5,190.7,112.5,190.7z"/>
</g>
</svg>
