<?xml version="1.0" encoding="utf-8"?>
<!-- Generator: Adobe Illustrator 16.0.0, SVG Export Plug-In . SVG Version: 6.00 Build 0)  -->
<!DOCTYPE svg PUBLIC "-//W3C//DTD SVG 1.1//EN" "http://www.w3.org/Graphics/SVG/1.1/DTD/svg11.dtd">
<svg version="1.1" id="Layer_1" xmlns="http://www.w3.org/2000/svg" xmlns:xlink="http://www.w3.org/1999/xlink" x="0px" y="0px"
	 width="612px" height="792px" viewBox="0 0 612 792" enable-background="new 0 0 612 792" xml:space="preserve">
<path id="XMLID_11_" fill="#A8A8A8" d="M325.755,211.931c-0.622,0.799-1.332,1.953-2.309,2.841
	c-28.855,23.794-57.71,47.5-86.655,71.117c-1.332,1.063-3.729,1.598-5.416,1.243c-36.313-8.08-72.538-16.426-108.762-24.594
	c-2.486-0.533-3.285-1.776-3.641-3.996c-5.149-28.678-10.21-57.355-15.449-86.033c-0.533-3.107,0-5.327,2.309-7.636
	c11.542-11.897,22.818-23.883,34.183-35.958c18.29-19.355,40.486-33.917,61.351-50.164c4.617-3.551,8.435-4.173,13.939-2.397
	c28.589,8.967,57.356,17.491,86.123,26.014c2.841,0.799,4.261,2.131,4.881,5.061c4.528,19,10.033,37.734,13.764,56.823
	C323.003,179.701,323.891,195.594,325.755,211.931z"/>
<path id="XMLID_10_" fill="#A8A8A8" d="M116.753,275.057c12.696,2.841,24.238,5.416,35.869,8.08
	c23.794,5.416,47.589,10.832,71.384,16.07c2.841,0.622,4.084,2.042,4.972,4.528c13.851,39.243,27.701,78.486,41.729,117.642
	c0.888,2.486,0.622,4.176-0.977,6.217c-19.71,23.973-39.332,48.031-58.865,72.184c-1.687,2.041-3.107,2.664-5.771,1.863
	c-30.809-9.057-61.706-18.023-92.515-27.078c-1.598-0.445-3.462-1.689-4.262-3.107c-23.262-37.469-40.486-77.245-46.435-121.282
	c-0.267-1.865,0.355-4.262,1.42-5.771c16.78-22.285,33.65-44.481,50.519-66.678C114.711,276.567,116.043,275.679,116.753,275.057z"
	/>
<path id="XMLID_9_" fill="#A8A8A8" d="M319.096,102.192c9.322-5.061,18.47-10.122,27.612-15.094
	c14.206-7.813,28.412-15.626,42.795-23.262c1.688-0.888,4.439-1.065,6.304-0.444c40.844,14.117,77.066,36.225,109.828,64.192
	c2.222,1.865,3.643,3.729,3.817,6.748c2.042,31.874,4.173,63.659,6.393,95.533c0.18,3.107-0.888,4.617-3.374,6.126
	c-23.883,14.117-47.678,28.322-71.383,42.706c-2.664,1.598-4.528,1.776-7.281,0c-30.273-20.065-60.641-40.042-90.916-60.197
	c-1.773-1.154-3.463-3.64-3.641-5.682c-2.485-36.668-8.967-72.626-19.532-107.875C319.451,104.056,319.362,103.257,319.096,102.192z
	"/>
<path id="XMLID_8_" fill="#A8A8A8" d="M219.567,508.387c19.355-23.795,38.355-47.234,57.356-70.676
	c0.355-0.441,0.71-0.887,1.065-1.328c8.967-11.012,8.967-10.832,23.084-11.811c31.963-2.396,63.926-4.885,95.8-7.637
	c4.884-0.443,8.08,0.621,11.276,4.617c15.979,19.977,32.315,39.688,48.652,59.309c1.864,2.309,2.042,3.729,0.269,6.215
	c-16.159,21.842-32.054,43.861-48.211,65.701c-1.243,1.688-3.464,3.197-5.416,3.553c-20.065,3.729-40.042,7.9-60.196,10.654
	c-12.342,1.686-24.949,1.508-37.379,1.598c-13.229,0.088-26.458-0.441-39.687-0.799c-1.509-0.09-3.64-0.711-4.439-1.773
	C247.712,546.92,233.773,527.742,219.567,508.387z"/>
<path id="XMLID_7_" fill="#A8A8A8" d="M573.822,308.086c-1.421,21.664-2.752,43.238-9.059,64.015
	c-7.278,23.972-17.135,46.879-31.519,67.655c-2.575,3.729-5.771,6.479-9.944,8.521c-16.778,8.168-33.472,16.514-50.075,25.037
	c-2.93,1.51-4.351,1.066-6.393-1.42c-17.313-21.311-34.804-42.439-52.028-63.748c-1.152-1.51-1.773-4.262-1.332-6.127
	c8.97-34.98,18.112-70.051,27.349-104.944c0.441-1.865,1.953-3.907,3.551-4.883c26.104-15.626,52.384-31.075,78.487-46.612
	c2.396-1.421,3.815-1.421,5.682,0.799c14.473,16.781,28.944,33.472,43.683,49.986C575.688,300.273,573.2,304.268,573.822,308.086z"
	/>
<path id="XMLID_6_" fill="#A8A8A8" d="M214.506,8.878c-4.883,17.58-9.678,35.07-14.65,52.65c-0.444,1.42-1.864,2.841-3.107,3.817
	c-7.991,6.126-15.893,12.341-24.149,18.023c-26.902,18.557-49.188,41.907-69.875,66.767c-6.925,8.346-14.561,13.584-25.215,15.981
	c-16.07,3.64-31.785,8.701-47.678,13.14c-1.42,0.444-2.93,0.622-5.594,1.243C61.795,93.846,128.207,40.574,213.263,7.812
	C213.619,8.168,214.063,8.523,214.506,8.878z"/>
<path id="XMLID_5_" fill="#A8A8A8" d="M91.449,525.434C30.542,463.906-3.196,391.189,0.266,302.581
	c1.154,0.977,1.954,1.598,2.752,2.397c13.673,13.762,27.346,27.523,40.93,41.374c1.332,1.332,2.752,3.196,3.019,4.972
	c6.304,42.085,21.486,80.885,43.416,117.11c4.794,7.9,7.103,15.627,5.505,25.127c-1.865,10.387-2.131,21.041-3.107,31.518
	C92.337,525.168,91.893,525.256,91.449,525.434z"/>
<path id="XMLID_4_" fill="#A8A8A8" d="M557.308,127.851c-10.741-1.776-20.241-3.551-29.921-4.883
	c-4.616-0.622-8.257-2.664-11.896-5.416c-13.143-9.944-26.636-19.622-39.776-29.565c-18.645-14.117-40.131-22.729-61.351-31.963
	c-6.837-3.019-14.738-4.617-20.243-9.234c-5.505-4.617-8.523-12.075-12.521-18.378C375.653,19.178,369.704,9.855,364.111,0
	c38,10.654,75.821,22.108,108.585,44.837C505.19,67.476,533.868,94.29,557.308,127.851z"/>
<path id="XMLID_3_" fill="#A8A8A8" d="M460.709,570.449c-3.906,2.574-7.636,5.238-11.631,7.635
	c-29.743,17.938-62.063,28.146-96.332,32.764c-46.347,6.127-91.627,0.531-136.464-11.365c-0.799-0.176-1.598-0.531-2.93-0.979
	c1.065-0.619,1.776-1.152,2.486-1.598c11.454-5.326,22.907-10.742,34.36-15.893c1.598-0.711,3.551-0.889,5.416-0.889
	c26.725,0.709,53.449,2.842,80.085,1.775c18.201-0.799,36.225-5.594,54.159-9.59c10.477-2.311,20.773-3.818,31.519-3.373
	c11.631,0.533,23.262,0.354,34.893,0.533c1.423,0,2.755,0,4.175,0C460.531,569.826,460.62,570.182,460.709,570.449z"/>
<path id="XMLID_2_" fill="#A8A8A8" d="M550.649,490.807c-1.954-14.473-3.729-27.611-5.327-40.752
	c-0.18-1.512,0.977-3.195,1.687-4.705c8.79-17.58,18.379-34.807,26.369-52.74c10.654-23.884,12.785-49.632,13.939-75.379
	c0.178-3.197,0.442-6.393,0.089-9.501c-1.864-14.294,1.953-27.079,9.767-39.065c3.906-6.037,6.925-12.785,10.122-18.911
	C622.477,337.651,600.28,416.76,550.649,490.807z"/>
</svg>
