<?xml version="1.0" encoding="utf-8"?>
<!-- Generator: Adobe Illustrator 21.0.0, SVG Export Plug-In . SVG Version: 6.00 Build 0)  -->
<svg version="1.1" id="Layer_1" xmlns="http://www.w3.org/2000/svg" xmlns:xlink="http://www.w3.org/1999/xlink" x="0px" y="0px"
	 viewBox="0 0 455.8 455.8" style="enable-background:new 0 0 455.8 455.8;" xml:space="preserve">
<style type="text/css">
	.st0{fill:#00F322;}
</style>
<path class="st0" d="M227.7,0c126,0.3,228.3,102.5,228.1,227.9c-0.2,126-103,228.5-228.7,227.9C101.2,455.2-0.5,352.5,0,226.4
	C0.5,101.9,103.3-0.3,227.7,0z M152.1,140.8c-4.9,24.7-8.1,49.1-8.3,73.9c56.4,0,112.1,0,168.2,0c-0.3-25-3.5-49.3-8.4-74
	C253.1,144.1,202.7,143.9,152.1,140.8z M312,241.1c-56.5,0-112.2,0-167.9,0c-1.3,13.2,3.9,58.7,8.4,73.9c50.2-3.3,100.6-3.2,151.2,0
	C308.6,290.4,311.7,266.1,312,241.1z M297.3,115.4c-3.8-15.2-9.2-28.9-16.2-41.9c-7.2-13.5-14.6-27-27-36.8
	c-7.1-5.6-14.6-10.4-24.1-10.9c-13.4-0.7-23.6,5.8-32.6,14.8c-16.9,16.9-26.7,38-34.4,60.1c-1.6,4.6-3,9.4-4.7,14.7
	C204.9,118.4,250.7,118.4,297.3,115.4z M297.5,340.4c-46.7-3-92.6-3-138.8,0c0.3,1.6,0.4,2.7,0.7,3.8c5.5,19.5,13.5,38,25,54.6
	c5.4,7.8,11.7,15.5,19.1,21.5c17.3,14,34.9,13.2,51.3-1.8C277.7,397.6,288.4,369.9,297.5,340.4z M125.9,139.3
	c-0.7-0.3-0.9-0.5-1.2-0.5c-23.6-2.9-47.2-5.9-70.9-8.6c-1.2-0.1-3.2,1-3.8,2.1c-14,25.6-21.8,53.1-23.7,82.5c30.7,0,61,0,91.3,0
	c1-12.8,1.7-25.2,3.1-37.6C122,164.5,124.1,152,125.9,139.3z M125.3,317c-2.8-25.6-5.6-50.8-8.4-76c-29.9,0-60.1,0-90.4,0
	c-0.1,0.7-0.3,1.2-0.2,1.7c2.1,28,9.7,54.5,22.7,79.5c1.7,3.3,3.6,3.9,7,3.4c14.3-2.1,28.7-3.9,43-5.7
	C107.9,318.8,116.8,317.9,125.3,317z M330.5,138.8c2.8,25.7,5.6,50.8,8.3,75.9c29.9,0,60.2,0,90.7,0c-1.9-28.6-9.4-55.3-22.4-80.5
	c-1.8-3.6-3.6-4.6-7.6-4c-11.5,1.9-23.1,3.3-34.6,4.7C353.3,136.4,341.8,137.6,330.5,138.8z M429.6,241.2c-30.9,0-61.2,0-90.7,0
	c-2.8,25.5-5.6,50.6-8.4,75.8c0.8,0.1,1.7,0.4,2.7,0.5c22.8,2.8,45.5,5.6,68.3,8.2c1.4,0.2,3.8-1.1,4.5-2.4
	C419.9,297.7,427.6,270.5,429.6,241.2z M287.4,34.6c2.7,4,4.7,6.9,6.7,9.9c12.8,19.5,21.3,40.9,27.6,63.3c1.3,4.6,3,6,7.8,5.3
	c10.7-1.5,21.5-2.2,32.3-3.4c8.9-1,17.8-2.3,27.5-3.6C362.6,71.5,329.3,48.1,287.4,34.6z M168.4,421.2c-2.7-3.9-4.7-6.9-6.7-9.9
	c-12.9-19.7-21.4-41.3-27.8-63.8c-1.1-3.8-2.2-5.5-6.7-4.9c-11.2,1.5-22.5,2.3-33.8,3.5c-8.7,1-17.4,2.3-26.9,3.6
	C93.3,384.3,126.6,407.8,168.4,421.2z M289.4,420.5c39.8-12.8,73.2-36.3,99.4-70.3c-0.8-0.4-1.3-0.7-1.7-0.8
	c-20.3-2.3-40.6-4.7-61-6.8c-1-0.1-2.9,1.7-3.3,2.9c-3.7,10.1-6.3,20.7-10.7,30.5C305.1,391.3,296.9,406,289.4,420.5z M166.5,35.2
	C126.4,48.3,93.1,71.6,67,105.5c0.7,0.4,1,0.6,1.3,0.7c20.5,2.4,41,4.8,61.5,6.9c1,0.1,2.8-1.8,3.2-3.1c3.8-10.5,6.5-21.4,11.1-31.5
	C151,63.7,159,49.6,166.5,35.2z"/>
</svg>
