<?xml version="1.0" encoding="utf-8"?>
<!-- Generator: Adobe Illustrator 16.0.0, SVG Export Plug-In . SVG Version: 6.00 Build 0)  -->
<!DOCTYPE svg PUBLIC "-//W3C//DTD SVG 1.1//EN" "http://www.w3.org/Graphics/SVG/1.1/DTD/svg11.dtd">
<svg version="1.1" id="Layer_1" xmlns="http://www.w3.org/2000/svg" xmlns:xlink="http://www.w3.org/1999/xlink" x="0px" y="0px"
	 width="612px" height="792px" viewBox="0 0 612 792" enable-background="new 0 0 612 792" xml:space="preserve">
<path fill="#A8A8A8" d="M536.445,246.235c-6.532-2.579-12.979-5.243-19.514-7.908c-1.375-0.602-2.664-1.375-4.126-2.149
	c0.432-0.771,0.604-1.461,1.031-1.719c4.985-2.407,5.243-7.048,5.502-11.604c2.75-40.915-7.563-78.391-29.999-112.429
	c-6.358-9.627-14.011-18.394-21.229-27.419c-1.721-2.149-4.126-3.696-6.274-5.501c-1.892,0-3.782,0-5.588,0
	c-5.243,1.805-10.572,3.524-15.815,5.415c-29.396,10.486-53.378,28.709-74.093,51.573c-5.846,6.447-11.604,12.808-17.275,19.426
	c-2.149,2.492-4.3,3.18-7.395,2.148c-13.408-4.47-26.903-4.384-40.313-0.086c-3.266,1.032-5.329,0.172-7.65-2.235
	c-12.12-12.893-23.896-26.13-36.789-38.164c-20.027-18.652-44.095-30.6-70.569-37.476c-0.43-0.086-0.859-0.344-1.29-0.602
	c-0.945,0-1.891,0-2.836,0c-7.994,3.696-12.893,10.658-18.222,17.019c-19.34,23.122-30.514,50.112-37.133,79.25
	c-4.04,17.621-5.759,35.327-2.75,53.292c0.516,3.094,3.008,5.845,4.813,9.197c-0.516,0.258-1.719,1.203-3.008,1.719
	c-6.361,2.75-12.636,5.501-19.082,7.994c-2.751,1.117-3.954,2.665-3.954,5.759c0.086,34.21,0.086,68.42,0,102.544
	c0,2.922,1.117,4.556,3.782,5.501c3.438,1.203,6.704,2.836,10.143,3.954c3.696,1.203,5.157,3.695,5.157,7.392
	c-0.086,7.736-0.086,15.472-0.086,23.208c0,36.188,0,72.374-0.172,108.563c0,4.126,1.375,6.272,5.243,7.819
	c62.919,25.529,125.752,51.146,188.585,76.672c1.289,0.518,2.492,1.118,3.782,1.636c2.318,0,4.728,0,7.048,0
	c20.113-8.426,40.228-16.936,60.427-25.271c42.721-17.706,85.525-35.327,128.245-53.034c5.415-2.232,5.845-2.922,5.845-8.938
	c-0.172-43.321-0.43-86.645-0.602-129.964c0-5.759,0.172-6.017,5.673-8.165c3.782-1.462,7.65-2.837,11.346-4.642
	c1.204-0.603,2.579-2.579,2.579-3.868c0.172-34.812,0.086-69.538,0.172-104.35C539.884,248.212,538.681,247.095,536.445,246.235z
	 M373.99,172.658c18.564-22.262,38.594-42.719,65.326-55.441c2.836-1.375,5.845-2.407,8.682-3.868
	c3.438-1.719,5.759-0.859,8.079,2.149c13.667,17.535,22.95,37.133,28.451,58.536c1.118,4.298,1.892,8.682,2.837,12.979
	c0.516,2.579-0.432,3.782-3.097,3.61c-2.232-0.086-4.47,0-6.702,0c-21.317,0.43-41.519,6.017-61.458,12.893
	c-7.736,2.665-15.388,5.415-23.036,8.338c-2.664,0.945-3.868,0.43-4.472-2.407c-2.404-11.518-7.048-22.004-14.438-31.202
	C372.615,176.44,372.271,174.635,373.99,172.658z M313.908,184.949c19.598-3.868,39.107,8.682,44.009,28.537
	c1.031,4.384,1.375,9.025,1.203,13.495c-0.172,5.157-3.009,7.994-8.08,8.51c-9.627,0.945-19.34,1.633-28.795,2.406
	c-10.229-0.773-20.285-1.375-30.342-2.32c-4.985-0.43-7.22-2.923-7.994-7.822C281.159,208.845,295.256,188.646,313.908,184.949z
	 M161.166,164.578c5.33-17.621,13.667-33.78,25.099-48.307c3.266-4.212,4.384-4.47,9.197-2.579
	c20.973,8.251,38.508,21.489,54.065,37.562c6.619,6.791,12.808,14.011,19.168,20.973c1.547,1.719,2.407,3.438,0.602,5.587
	c-7.65,8.767-11.776,19.254-14.526,30.342c-1.29,5.157-1.375,5.157-6.361,3.095c-23.724-9.799-48.221-16.934-73.75-20.286
	c-5.329-0.688-10.744-0.172-16.16-0.43c-1.203-0.086-2.407-1.118-3.61-1.719C157.126,180.136,158.845,172.228,161.166,164.578z
	 M129.62,333.824c0.086-20.629,0.086-41.258,0-61.802c0-3.352,1.204-5.501,4.384-6.705c10.658-4.212,21.317-8.423,31.803-13.065
	c5.244-2.321,10.143-0.516,15.128,0.344c16.503,2.665,33.179,2.407,49.768,1.461c8.08-0.43,16.073-1.547,24.067-2.407
	c4.728-0.516,5.157-0.43,8.853,3.782c-1.805,1.031-3.352,2.149-5.071,2.836c-21.489,8.51-43.063,16.933-64.552,25.357
	c-5.587,2.149-5.931,2.75-5.931,8.767c0,21.747,0,43.58,0,65.326c0,4.384-0.516,4.728-4.642,3.009
	c-16.417-6.705-32.835-13.581-49.252-20.199C130.824,339.239,129.62,337.176,129.62,333.824z M197.783,505.563
	c0,0.772-0.172,1.635-0.344,2.838c-1.461-0.346-2.837-0.604-4.04-1.031c-13.151-5.416-26.302-10.917-39.54-16.246
	c-3.352-1.375-4.813-3.438-4.813-7.134c0.086-33.694,0.086-67.391,0.086-101.083c0-1.72,0.258-3.438,0.43-5.674
	c2.665,1.118,4.899,2.063,7.134,3.009c12.549,5.071,25.099,10.229,37.648,15.214c2.321,0.945,3.61,2.147,3.61,4.813
	C197.869,435.423,197.869,470.492,197.783,505.563z M398.487,528.082c-0.432,1.031-1.635,2.148-2.664,2.578
	c-1.979,0.858-4.298,1.032-6.361,1.806c-21.229,8.597-42.375,17.276-63.604,25.958c-3.183,1.29-5.933,1.376-9.111,0
	c-21.316-8.854-42.719-17.62-64.122-26.474c-8.768-3.61-8.768-3.61-8.768-13.151c0-31.718,0-63.435,0-95.15c0-2.148,0-4.386,0-7.479
	c7.736,3.18,14.44,5.845,21.059,8.681c17.019,7.137,34.038,14.354,50.971,21.661c3.61,1.547,6.876,1.547,10.486,0.086
	c21.833-9.195,43.751-18.223,65.67-27.334c1.891-0.771,3.868-1.375,6.274-2.318c0.172,1.977,0.344,3.352,0.344,4.728
	c0,33.952,0,67.904,0,101.856C398.831,525.073,399.003,526.707,398.487,528.082z M404.161,384.193
	c-1.462-0.086-3.095,0.945-4.644,1.547c-24.41,10.057-48.821,20.025-73.232,30.17c-3.354,1.376-6.36,1.462-9.799,0
	c-24.841-10.314-49.682-20.457-74.523-30.686c-1.203-0.516-2.493-1.203-3.61-1.117c-4.04,0.344-4.728-2.063-4.728-5.243
	c0-9.455,0-18.996,0-28.451h0.086c0-9.369,0.086-18.738,0-28.107c0-3.095,1.203-4.899,4.126-6.103
	c26.474-11.088,52.948-22.348,79.508-33.351c2.321-0.945,5.674-0.945,7.994,0c26.477,10.917,52.776,22.177,79.165,33.265
	c3.354,1.375,4.556,3.438,4.556,6.962c-0.086,18.48,0,36.961,0.088,55.527C409.146,382.044,408.458,384.365,404.161,384.193z
	 M489.514,490.949c-13.838,5.673-27.591,11.519-41.344,17.275c-0.945,0.346-1.978,0.518-3.438,0.945c0-1.719,0-3.095,0-4.47
	c0.086-33.608,0.086-67.131,0.172-100.739c0-6.017,0.516-6.704,6.188-9.025c12.636-5.243,25.271-10.486,37.906-15.644
	c1.117-0.516,2.321-0.859,4.04-1.462c0.258,2.063,0.516,3.61,0.516,5.158c0,33.693,0,67.389,0.086,101.083
	C493.64,487.339,492.78,489.574,489.514,490.949z M509.456,340.27c-16.504,6.791-33.007,13.753-49.511,20.543
	c-4.644,1.891-5.157,1.547-5.157-3.61c0-21.575,0-43.063,0-64.638c0-6.275-0.344-6.876-6.446-9.197
	c-21.401-8.424-42.892-16.761-64.295-25.185c-1.719-0.688-3.352-1.547-5.071-2.321c1.462-3.782,4.04-4.985,7.65-4.47
	c16.589,2.321,33.265,4.04,50.025,2.922c10.229-0.688,20.458-2.235,30.687-2.922c3.523-0.258,7.306,0.086,10.572,1.29
	c10.313,3.868,20.285,8.337,30.514,12.377c3.269,1.289,4.644,3.352,4.729,6.876c0.086,20.457,0.344,41,0.603,61.458
	C513.926,336.918,512.636,338.981,509.456,340.27z"/>
</svg>
