<?xml version="1.0" encoding="utf-8"?>
<!-- Generator: Adobe Illustrator 16.0.0, SVG Export Plug-In . SVG Version: 6.00 Build 0)  -->
<!DOCTYPE svg PUBLIC "-//W3C//DTD SVG 1.1//EN" "http://www.w3.org/Graphics/SVG/1.1/DTD/svg11.dtd">
<svg version="1.1" id="Layer_1" xmlns="http://www.w3.org/2000/svg" xmlns:xlink="http://www.w3.org/1999/xlink" x="0px" y="0px"
	 width="612px" height="792px" viewBox="0 0 612 792" enable-background="new 0 0 612 792" xml:space="preserve">
<path fill="#00F322" d="M503.009,375.48c-0.172-2.406-0.771-3.781-3.868-3.18c-7.392,1.289-14.956,2.148-22.434,3.18
	c-3.009,0.431-3.61-1.547-4.126-3.867c-1.634-7.049-3.095-14.183-5.157-21.06c-1.375-4.556-3.522-8.854-5.587-13.151
	c-1.204-2.578-0.774-4.297,1.719-5.673c6.532-3.782,13.065-7.649,19.6-11.432c1.977-1.117,2.491-2.149,1.203-4.384
	c-19.428-32.405-46.933-54.238-83.722-63.951c-4.556-1.203-4.642-1.117-5.501,3.353c-1.376,7.134-2.751,14.183-4.04,21.317
	c-0.516,2.75-1.72,3.868-4.728,3.266c-11.521-2.063-22.95-2.579-34.554-0.172c-3.696,0.773-4.386,0.086-5.071-3.868
	c-1.548-8.337-3.009-16.675-4.47-25.013c-0.088-0.516,0-1.032,0-1.805c2.836-0.258,5.587-0.602,8.337-0.859
	c7.906-0.602,15.9-1.29,23.81-1.719c3.095-0.172,3.696-1.29,3.696-4.126c-0.086-47.533-0.086-94.98-0.086-142.513
	c0-2.579-0.086-5.244-0.688-7.65c-2.321-9.627-10.313-16.503-20.113-17.878c-0.857-0.086-1.806-0.516-2.663-0.774
	c-68.078,0-136.066,0-204.145,0c-1.547,0.344-3.008,0.688-4.556,0.86c-10.057,1.547-18.91,11.174-19.512,21.403
	c-0.172,2.922-0.43,5.759-0.602,8.682c-0.172,3.61-0.86,4.211-4.47,4.297c-6.619,0.258-13.323,0.172-19.77,1.118
	c-10.315,1.633-18.137,10.83-18.738,21.145c-0.344,5.071-0.516,10.143-0.516,15.214c0,99.966,0,199.931,0,299.896
	c0,7.309,1.375,14.271,6.532,19.855c4.899,5.415,11.174,7.908,18.223,7.908c22.262,0.172,44.611,0.086,66.873,0.086
	c27.505,0,54.925,0.172,82.431-0.086c5.244,0,9.283,1.288,12.206,5.759c0.344,0.516,0.774,0.943,1.375,1.548
	c0.688-0.517,1.375-1.032,1.891-1.548c5.845-5.587,11.69-11.174,17.535-16.761c2.836-2.665,2.665-2.579,5.243,0.258
	c6.962,7.647,15.214,13.667,24.154,18.91c7.479,4.384,7.479,4.384,3.868,12.204c-2.579,5.502-4.985,11.176-7.736,16.591
	c-1.115,2.232-0.602,3.18,1.461,4.298c9.369,5.07,19.428,7.563,29.826,8.938c5.588,0.773,11.349,0.945,17.021,1.461
	c1.117,0.086,2.233,0.432,3.267,0.688c2.32,0,4.558,0,6.876,0c2.579-0.258,5.071-0.688,7.65-0.859
	c12.463-0.771,24.669-2.665,36.187-7.734c7.65-3.438,7.65-3.438,4.298-10.916c-2.75-6.019-5.327-12.12-8.077-18.225
	c-0.688-1.547-1.118-2.75,0.943-3.694c11.689-5.502,21.746-13.236,30.516-22.605c0.516-0.517,1.115-0.946,1.978-1.634
	c1.978,1.892,3.953,3.695,5.845,5.501c4.644,4.384,9.369,8.854,14.013,13.323c1.461,1.375,2.404,1.461,3.693-0.174
	c16.677-20.543,27.68-43.577,31.546-69.967C503.524,398.259,503.782,386.913,503.009,375.48z M275.916,337.833
	c-4.985,10.229-8.767,20.801-10.229,32.061c-0.688,5.071-1.891,5.587-7.134,4.899c-6.533-0.945-13.151-1.547-19.684-2.32
	c-2.235-0.258-3.352,0.344-3.61,2.922c-1.977,20.286,0.602,40.056,7.306,59.31c1.633,4.556,3.353,9.025,5.33,14.183
	c-1.891,0.086-3.095,0.26-4.298,0.26c-42.032,0-83.978,0-126.01,0c-7.306,0-10.83-3.524-10.83-10.916c0-97.817,0-195.635,0-293.365
	c0-6.704,2.836-9.885,9.455-10.658c1.633-0.172,3.266-0.258,4.985-0.258c58.621,0,117.157-0.086,175.778-0.086
	c1.118,0,2.321,0,3.438,0.086c7.22,0.688,10.313,4.126,10.313,11.346c0,37.477,0,74.867,0.086,112.344
	c0,3.18-1.115,5.157-3.952,6.704c-22.35,11.948-39.541,29.225-52.521,50.886c-1.547,2.492-1.375,3.782,1.29,5.329
	c6.361,3.524,12.463,7.392,18.652,11.174C277.463,333.621,277.635,334.223,275.916,337.833z M409.49,459.975
	c-11.003,6.791-23.208,10.314-36.188,10.916c-41.345,1.894-75.984-25.698-83.806-66.787c-6.533-34.124,7.478-68.076,35.757-86.557
	c13.581-8.853,28.537-13.495,44.61-13.151c37.646,0.86,68.249,25.099,77.617,62.232c1.548,6.188,2.233,12.549,2.923,16.761
	C448.857,417.083,436.995,442.869,409.49,459.975z"/>
<path fill="#00F322" d="M208.183,269.67c3.18-3.353,5.415-5.931,7.822-8.252c11.69-11.26,28.881-6.447,32.749,9.283
	c1.547,6.361,0.688,12.721-4.04,17.707c-11.862,12.636-23.896,25.013-35.843,37.477c-0.086,0.172-0.344,0.172-0.688,0.344
	c-0.344-0.258-0.773-0.516-1.117-0.859c-11.69-12.034-23.638-23.81-34.984-36.187c-10.658-11.604-5.243-29.225,9.799-33.265
	c6.876-1.805,13.237-0.516,18.309,4.642C202.854,263.31,205.175,266.318,208.183,269.67z"/>
<path fill="#00F322" d="M368.231,339.294c4.126,3.954,7.307,7.048,10.57,10.143c8.854,8.596,17.793,17.105,26.477,25.786
	c10.656,10.745,5.759,29.311-8.77,33.007c-6.618,1.72-12.464-0.26-17.535-4.729c-1.977-1.805-3.954-3.523-5.931-5.329
	c-0.344,0.086-0.688,0.258-1.031,0.344c0.258,2.751,0.086,5.675,0.773,8.34c1.633,6.962,5.845,11.945,12.033,15.472
	c0.944,0.516,1.806,1.375,2.665,2.063c-0.174,0.346-0.26,0.773-0.432,1.117c-1.461-0.172-2.923-0.172-4.298-0.516
	c-9.541-2.493-18.996-2.149-28.537,0.086c-1.031,0.258-2.063,0-3.095,0c-0.086-0.258-0.172-0.518-0.344-0.773
	c1.204-0.858,2.319-1.806,3.608-2.665c7.564-4.983,11.69-11.773,11.604-20.973c0-0.688-0.172-1.376-0.431-2.751
	c-1.462,1.117-2.577,1.892-3.522,2.837c-3.438,3.18-6.877,6.274-11.604,7.479c-8.165,2.063-16.071-1.116-20.369-8.252
	c-5.071-8.51-4.644-16.934,1.719-23.378c9.713-9.885,19.77-19.512,29.567-29.397C363.762,344.881,365.738,342.216,368.231,339.294z"
	/>
<path fill="#00F322" d="M167.956,208.298c-4.899-15.558-9.885-31.116-14.87-46.673c-0.773-2.407-1.805-3.868-4.728-3.868
	c-3.18,0-4.728,1.203-5.673,4.126c-2.837,8.939-5.845,17.878-8.768,26.818c-2.493,7.65-4.985,15.214-7.564,22.778
	c3.696,2.063,5.329,1.547,6.619-2.063c1.203-3.524,2.407-7.049,3.438-10.659c0.773-2.579,2.235-3.696,4.985-3.61
	c4.212,0.172,8.51,0.172,12.721,0.086c2.579-0.086,4.04,0.945,4.728,3.438c1.118,3.782,2.407,7.478,3.696,11.174
	c0.773,2.235,2.235,3.524,4.728,2.579C170.019,211.479,168.386,209.588,167.956,208.298z M139.247,189.904
	c2.579-8.767,5.157-17.277,7.65-25.701c0.43,0,0.946,0,1.375,0c2.665,8.424,5.329,16.848,8.166,25.701
	C150.507,189.904,145.264,189.904,139.247,189.904z"/>
</svg>
