<?xml version="1.0" encoding="utf-8"?>
<!-- Generator: Adobe Illustrator 21.0.0, SVG Export Plug-In . SVG Version: 6.00 Build 0)  -->
<svg version="1.1" id="Layer_1" xmlns="http://www.w3.org/2000/svg" xmlns:xlink="http://www.w3.org/1999/xlink" x="0px" y="0px"
	 viewBox="0 0 612 792" style="enable-background:new 0 0 612 792;" xml:space="preserve">
<style type="text/css">
	.st0{fill:#A8A8A8;}
</style>
<g>
	<path class="st0" d="M278.3,314.8c0,16.1,0,32.2,0,48.3c0,2.1-0.2,4.3,0.4,6.3c1.9,8.7,14.4,13.6,29.8,11.8
		c11.2-1.2,16.7-6.3,16.7-16.1c0.1-32.7,0.4-65.4-0.2-98c-0.1-8,2.6-8.4,9.1-7.2c22,4.1,41.8,13.8,61.9,23.1
		c38.7,17.8,77.5,35.3,116.2,53.1c6,2.7,11.5,6.5,15.9,11.4c8.2,8.7,7.9,18.8-0.4,27.3c-8.5,8.6-19.6,13.1-30.4,18
		c-43,19.7-85.9,39.6-129.2,58.6c-43.7,19.1-87.8,19.4-131.6-0.3c-42.2-19-84.4-38.1-126.4-57.3c-8.8-4.1-17.8-7.9-25.8-13.7
		c-17.1-12.1-17.1-26.7-0.1-38.5c12.9-9,27.6-14.2,41.7-20.7c36.3-16.7,72.7-33.3,109.1-49.7c11.7-5.3,23.9-9.7,36.6-12
		c5.3-1,7,0.2,6.9,5.7C278,281.6,278.3,298.2,278.3,314.8z M160.2,341.5c-8.6-0.4-17,1.4-24.7,6c-11.6,7.1-11.9,18.8-0.6,26.4
		c13.8,9.3,38.8,8.9,52.3-0.9c9.3-6.8,9.3-17.5,0-24.2C179.2,342.9,170.1,341.1,160.2,341.5z"/>
	<path class="st0" d="M304,540.4c-28.1-0.7-53.6-7.7-78.3-19.5c-42-20.1-84.7-38.7-127.1-57.9c-2.9-1.3-5.6-2.8-8.4-4.4
		c-17.4-10-23.3-23.9-18.6-43.3c1.4-5.6,5-6.2,9.7-4.1c16.7,7.6,33.5,15.3,50.3,22.7c38.9,17.2,77.1,36.6,116.8,51.8
		c40.9,15.7,81.7,12.7,121.4-4.9c42.5-18.9,84.9-38.2,127.3-57.3c8.9-4,17.7-8.1,26.6-12.1c6.6-2.9,9.9-0.9,10.7,6.3
		c2.5,23.6-1.9,32.8-23.3,42.9c-33.3,15.8-66.9,30.8-100.5,46c-20.9,9.3-41.1,20.4-63,27C333,538.1,318.2,540,304,540.4z"/>
	<path class="st0" d="M366.9,175.8c0.1,35.7-28.4,64.5-63.9,64.6c-35.6,0.1-64.5-28.5-64.6-63.9c-0.1-35.8,28.3-64.4,63.9-64.5
		C338.1,111.9,366.8,140.2,366.9,175.8z"/>
</g>
</svg>
