<?xml version="1.0" encoding="utf-8"?>
<!-- Generator: Adobe Illustrator 16.0.0, SVG Export Plug-In . SVG Version: 6.00 Build 0)  -->
<!DOCTYPE svg PUBLIC "-//W3C//DTD SVG 1.1//EN" "http://www.w3.org/Graphics/SVG/1.1/DTD/svg11.dtd">
<svg version="1.1" id="Layer_1" xmlns="http://www.w3.org/2000/svg" xmlns:xlink="http://www.w3.org/1999/xlink" x="0px" y="0px"
	 width="612px" height="792px" viewBox="0 0 612 792" enable-background="new 0 0 612 792" xml:space="preserve">
<path fill="#00F923" d="M406.048,356.5c-4.972,8.066-10.055,16.131-15.355,24.639c-5.524-7.734-10.607-15.026-16.574-23.424
	C385.607,360.699,395.662,359.925,406.048,356.5z"/>
<path fill="#00F923" d="M611.89,174.083c-1.437-10.607-9.502-14.474-18.781-16.794c-35.356-8.839-70.714-17.678-106.07-26.628
	c-45.189-11.38-90.38-22.65-135.681-34.031c-13.7-3.425-21.655,0.995-25.854,14.143c-0.331,0.995-0.552,1.989-0.884,2.983
	c-14.145,55.355-28.506,110.71-42.759,166.176c-1.547,6.077-1.436,6.298,4.309,8.839c20.44,9.281,39.003,21.325,55.908,36.02
	c1.436,1.215,2.872,2.32,5.082,4.199c0-2.983,0-4.751,0-6.519c0.44-22.098,8.949-39.886,28.285-51.377
	c22.54-13.369,45.301-26.296,67.841-39.555c3.535-2.099,5.522-1.105,7.4,2.1c3.314,5.635,6.853,11.159,10.275,16.684
	c9.944,16.131,19.999,32.152,29.611,48.395c11.712,19.667,12.706,39.776,1.326,59.996c-5.306,9.502-12.707,16.905-23.866,18.673
	c-15.026,2.431-28.064-1.989-39.113-12.596c-1.325-1.326-2.762-2.541-4.198-3.756c-0.331,0.221-0.553,0.332-0.884,0.552
	c1.326,15.248,2.762,30.605,4.088,46.516c-8.949-2.1-17.126-4.088-25.965-6.075c0.442,1.437,0.553,1.987,0.773,2.541
	c16.794,36.131,24.75,74.026,22.979,113.805c-0.221,3.756,1.326,5.414,4.973,6.298c22.1,5.414,44.195,11.049,66.403,16.573
	c14.585,3.646,24.971-2.541,28.617-17.018c28.175-112.365,56.46-224.846,84.522-337.213
	C611.447,182.701,612.441,178.17,611.89,174.083z M362.736,188.557c-2.32,2.762-5.306,3.314-8.618,2.541
	c-0.663-0.11-1.326-0.332-2.21-0.552c-2.433,6.96-3.646,7.403-9.281,3.204c0.442-1.437,0.994-2.873,1.657-4.641
	c-1.104-0.442-2.101-0.773-3.094-1.215c-5.745-1.878-8.065-8.729-3.646-12.817s9.723-7.292,14.916-10.497
	c0.773-0.552,3.535,0.553,4.088,1.547c2.651,4.309,4.861,8.839,7.184,13.369C365.277,182.811,365.167,185.794,362.736,188.557z
	 M362.957,153.311c-0.221-3.205-2.651-3.757-4.861-3.867c-1.987-0.11-5.083,0-5.967,1.326c-3.646,4.862-3.425,5.083-10.165,2.21
	c2.102-2.762,3.979-5.414,5.967-7.956c4.088-5.303,8.065-10.607,12.375-15.8c2.541-3.094,4.974-2.762,5.637,0.773
	c1.987,9.944,3.425,19.888,5.191,30.385C363.51,159.608,363.399,159.608,362.957,153.311z M506.262,487.209
	c-5.635,7.292-11.159,14.474-16.903,21.656c-0.662,0.884-2.101,1.768-3.095,1.768c-0.663,0-1.769-1.547-1.879-2.541
	c-1.547-9.611-2.981-19.226-4.309-28.838c-0.111-0.44,0.221-0.771,0.439-1.657c4.312,0,7.516,0.662,6.853,5.968
	c-0.442,3.426,2.32,4.197,4.751,4.42c1.989,0.221,5.193,0.331,6.077-0.886c3.757-4.751,3.535-4.973,9.723-2.65
	C507.256,485.33,506.925,486.325,506.262,487.209z M507.366,466.547c-2.541,1.879-5.304,3.536-7.845,5.414
	c-2.541,1.879-4.753,1.216-6.3-1.215c-2.318-3.867-4.751-7.734-6.519-11.822c-2.873-6.63,0.109-11.712,7.182-12.375
	c3.646-0.331,5.746-1.878,6.188-5.967c2.873,0.663,5.304,1.326,8.063,1.989c-0.771,2.1-1.436,3.757-2.099,5.414
	C517.863,454.063,518.194,458.703,507.366,466.547z"/>
<path fill="#00F923" d="M199.323,297.941C89.607,297.941-0.773,388.1,0,498.037c0.773,111.926,92.038,199.984,201.974,198.438
	c113.804-1.547,197.776-95.463,196.892-198.989C398.756,386.995,309.591,297.83,199.323,297.941z M334.782,435.5
	c2.541,3.646,2.763,7.071,1.104,11.049c-6.961,17.126-14.03,34.144-20.883,51.269c-1.657,4.197-4.31,5.854-8.839,6.188
	c-19.115,1.438-38.229,3.094-57.344,4.751c-3.978,0.332-7.182-0.771-9.502-3.978c-14.253-19.114-28.506-38.229-42.428-57.677
	c-1.547-2.21-1.989-6.298-1.105-8.84c7.071-18.562,14.584-37.014,21.987-55.576c1.436-3.536,3.756-5.193,7.624-5.193
	c9.06-0.111,18.01-0.442,27.07-0.995c7.624-0.442,15.248-1.436,22.872-2.099c22.319,0.884,16.794-1.326,28.727,15.689
	C314.563,405.226,324.507,420.584,334.782,435.5z M230.922,520.688c-8.618,19.998-17.236,40.107-25.744,60.105
	c-1.326,3.094-3.646,4.861-6.961,5.193c-22.982,2.1-45.963,4.309-69.056,6.188c-1.989,0.11-4.862-1.437-6.077-3.094
	c-12.264-18.12-24.197-36.24-36.02-54.582c-1.215-1.878-1.326-5.303-0.552-7.292c8.287-20.772,16.794-41.436,25.633-61.984
	c0.995-2.318,4.199-4.973,6.629-5.304c20.33-3.204,40.771-5.967,62.537-8.949c1.326,0.884,3.978,1.77,5.414,3.646
	c14.474,19.336,28.837,38.78,43.201,58.117C231.917,515.163,232.249,517.814,230.922,520.688z M161.756,332.855
	c1.878-4.862,3.204-9.944,4.641-15.026c0.994-3.646,2.983-5.635,7.071-5.856c9.944-0.773,19.999-1.878,27.07-2.541
	c32.594,1.105,60.659,8.287,86.624,22.761c3.978,2.21,7.071,5.966,10.165,9.392c0.884,0.995,1.105,3.315,0.663,4.861
	c-0.884,3.978-2.431,7.734-3.425,11.712c-0.995,4.088-3.536,5.635-7.513,5.746c-8.839,0.221-17.678,0.663-26.628,0.995
	c-11.491,0.442-22.982,1.215-34.473,0.994c-5.746-0.11-11.933-1.437-17.236-3.757c-14.695-6.519-29.059-14.032-43.644-20.882
	C161.314,339.264,160.209,337.054,161.756,332.855z M154.574,315.398c-1.326,4.42-2.541,7.734-3.204,11.16
	c-1.547,7.955-5.966,13.479-12.706,18.23c-14.474,10.275-28.506,21.104-42.428,32.042c-6.961,5.524-14.364,8.839-23.313,9.392
	c-7.955,0.442-15.91,1.878-23.976,2.873c-0.11-0.442-0.332-0.884-0.442-1.436C74.691,351.307,109.937,327.773,154.574,315.398z
	 M68.393,527.759c-12.265,2.433-24.418,5.192-36.683,7.733c-2.099,0.44-3.978,0.885-4.751-1.988
	c-4.309-16.242-8.618-32.483-12.927-48.836c-0.332-1.438-0.442-2.873-0.773-5.193c0.663-2.541,1.215-6.075,2.431-9.279
	c7.955-20.44,16.131-40.771,24.197-61.211c1.547-3.979,3.867-6.521,8.397-7.071c10.386-1.216,20.662-2.873,31.047-4.311
	c3.094-0.44,5.083,0.886,6.077,3.758c5.746,16.795,11.491,33.479,17.015,50.384c0.553,1.878,0.221,4.419-0.552,6.298
	c-8.618,21.214-17.458,42.428-26.186,63.642C74.249,524.996,72.039,526.985,68.393,527.759z M84.083,644.987
	c7.734-4.198,25.081,6.63,26.738,17.457C101.319,656.258,92.811,650.733,84.083,644.987z M230.922,675.482
	c-18.894,2.1-37.787,4.528-56.681,6.52c-9.723,0.994-18.673-1.658-26.518-7.846c-10.275-8.176-20.551-16.241-31.047-24.086
	c-3.425-2.541-4.42-5.193-2.873-9.394c3.867-10.165,7.403-20.551,10.938-30.827c1.105-3.203,2.983-5.413,6.409-5.744
	c22.981-2.211,45.963-4.31,69.056-6.407c0.11-0.331,0.332-0.555,0.442-0.884c3.204,1.437,6.74,2.318,9.502,4.309
	c14.806,10.607,29.28,21.546,43.975,32.264c2.762,1.988,3.425,3.646,1.547,6.739c-5.967,9.944-11.712,20.109-17.458,30.274
	C236.668,673.271,234.569,675.041,230.922,675.482z M345.721,613.94c-19.888,23.2-43.533,41.875-70.934,55.573
	c-5.745,2.873-12.264,4.312-18.562,6.188c-1.657,0.553-3.646,0.11-6.188,0.11c0.995-2.211,1.547-3.979,2.431-5.637
	c3.867-6.961,7.734-13.921,11.602-20.992c4.309-7.732,10.386-13.922,17.457-19.113c14.474-10.719,29.169-21.215,43.423-32.265
	c5.854-4.528,11.601-7.182,19.225-5.304c4.42,1.105,9.063,1.326,15.248,2.21C354.449,601.786,350.582,608.305,345.721,613.94z
	 M369.255,576.815c-2.872,6.188-3.646,6.738-10.273,5.854c-5.745-0.771-11.491-1.769-17.236-2.431
	c-3.094-0.332-4.641-1.989-5.193-4.862c-3.978-19.777-8.176-39.555-11.82-59.332c-0.663-3.757,0-8.287,1.324-11.822
	c6.521-17.234,13.591-34.36,20.44-51.486c2.21-5.637,3.646-6.299,9.724-5.414c5.082,0.663,10.056,1.325,15.139,1.768
	c4.088,0.332,6.519,2.21,8.063,6.077c5.635,14.253,9.171,28.838,7.845,44.748C386.602,526.322,380.525,552.177,369.255,576.815z"/>
<path fill="#00F923" d="M139.548,270.65c-11.049-23.866-22.098-47.731-32.926-71.597c-2.32-5.083-5.746-7.182-11.049-7.513
	c-13.59-0.994-27.18-2.099-40.771-3.204c-12.817-1.215-25.523-2.21-39.113-3.315c0.995,1.989,1.437,3.205,2.099,4.31
	c12.596,21.766,25.302,43.422,37.898,65.188c2.21,3.757,5.414,5.414,9.502,6.188c17.899,3.646,35.799,7.402,53.698,11.049
	c7.514,1.547,14.916,2.873,23.203,4.419C140.874,273.744,140.211,272.197,139.548,270.65z M76.127,251.204
	c-1.105,1.878-3.646,2.873-6.188,4.64c-3.425-2.32-6.96-3.867-9.281-6.519c-1.215-1.437-1.105-5.193,0-7.071
	c0.773-1.326,4.309-2.32,5.966-1.768c2.983,0.995,5.856,3.094,8.176,5.304C76.017,247.005,76.9,249.988,76.127,251.204z
	 M86.624,229.658c-0.663,1.658-3.094,2.542-5.524,4.31c-3.646-2.431-7.403-4.42-10.275-7.182c-1.105-0.994-0.884-4.751,0.11-6.188
	c1.547-1.989,4.199-3.867,7.182-1.878c2.542,1.658,5.304,3.205,7.292,5.414C86.513,225.46,87.176,228.222,86.624,229.658z
	 M97.341,208.224c-0.552,1.768-3.536,2.651-5.966,4.309c-3.314-1.989-6.519-3.425-9.06-5.524c-2.32-2.1-3.646-5.414-0.884-8.066
	c2.32-2.32,5.414-4.088,8.729-0.994c1.657,1.436,3.867,2.32,5.083,3.978C96.567,203.693,97.894,206.566,97.341,208.224z"/>
<path fill="#00F923" d="M194.129,196.18c-5.966-18.783-11.711-37.677-17.567-56.57c-1.878-5.856-3.757-11.823-5.856-18.121
	c-0.995,0.884-1.547,1.326-2.1,1.878c-17.015,19.667-34.031,39.334-51.046,59.001c-3.646,4.088-3.314,8.287-1.215,12.927
	c11.38,24.197,22.761,48.394,34.141,72.591c0.553,1.105,1.215,2.21,2.21,3.867c1.326-2.1,2.431-3.646,3.425-5.193
	c12.154-19.667,24.197-39.334,36.572-58.891C195.014,203.804,195.456,200.269,194.129,196.18z M141.537,196.843
	c-1.105,1.878-3.867,3.536-6.077,3.867c-1.878,0.221-4.42-6.187-3.536-8.287c0.994-2.431,1.878-4.972,3.425-6.96
	c1.216-1.547,4.088-3.757,5.193-3.315c1.768,0.773,2.651,3.536,3.646,4.972C143.083,191.098,142.973,194.302,141.537,196.843z
	 M159.326,248c-2.21,2.542-5.304,2.21-6.74-0.663c-2.651-5.304,0.773-14.364,6.409-16.905
	C164.187,236.398,164.297,242.475,159.326,248z M162.64,205.351c-2.431,1.658-4.53,0.995-5.746-1.547
	c-0.884-1.768-1.104-3.867-1.878-6.74c1.436-2.762,2.762-6.298,4.751-9.392c1.657-2.541,3.978-1.989,5.745,0.221
	C168.717,191.981,167.06,202.478,162.64,205.351z M166.839,161.929c-0.995,0.663-3.204,1.215-3.867,0.663
	c-1.547-1.326-2.431-3.314-3.204-4.53c0.773-4.199,1.105-7.624,2.209-10.718c0.553-1.436,2.431-3.094,3.978-3.425
	c1.104-0.221,2.873,1.547,3.756,2.873C172.363,150.769,170.706,159.277,166.839,161.929z M185.291,207.34
	c-0.773,1.215-4.53,2.209-4.862,1.878c-1.546-2.209-3.093-4.861-3.204-7.403c-0.11-2.209,1.326-4.861,2.762-6.74
	c1.326-1.768,4.088-4.088,5.414-3.646c1.878,0.552,2.983,3.536,4.641,5.746C188.273,201.042,187.169,204.467,185.291,207.34z"/>
<path fill="#00F923" d="M155.237,115.413c-23.866,0.552-47.731,1.215-71.486,1.657c-4.42,0.11-7.734,1.437-10.828,4.53
	c-16.463,15.689-32.926,31.268-49.499,46.847c-1.657,1.547-3.646,2.762-5.524,4.199c0.332,0.552,0.773,1.105,1.105,1.547
	c1.768,0.221,3.425,0.663,5.193,0.773c9.944,0.884,19.999,1.547,29.942,2.431c14.032,1.215,28.064,2.542,42.097,3.867
	c4.861,0.442,9.17-0.11,12.596-4.199c12.706-15.137,25.413-30.053,38.119-45.08c4.419-5.303,8.95-10.607,14.032-16.573
	C158.331,115.413,156.784,115.413,155.237,115.413z M79.11,150.548c3.204-7.182,13.259-12.264,20.109-9.833
	C96.236,148.449,85.519,153.531,79.11,150.548z"/>
<path fill="#00F923" d="M362.957,144.913c-2.762-0.552-4.53-0.994-6.851-1.437c1.769-2.651,3.202-4.751,5.304-7.955
	C362.073,139.168,362.404,141.599,362.957,144.913z"/>
<path fill="#00F923" d="M488.031,501.462c-0.11-1.988-0.332-3.978-0.224-5.967c0-0.884,0.663-2.209,1.326-2.32
	c0.994-0.221,2.32,0.111,3.094,0.773c0.442,0.44,0.442,1.989,0.11,2.65c-0.994,1.878-2.21,3.535-3.425,5.306
	C488.694,501.793,488.362,501.572,488.031,501.462z"/>
</svg>
