<?xml version="1.0" encoding="utf-8"?>
<!-- Generator: Adobe Illustrator 16.0.0, SVG Export Plug-In . SVG Version: 6.00 Build 0)  -->
<!DOCTYPE svg PUBLIC "-//W3C//DTD SVG 1.1//EN" "http://www.w3.org/Graphics/SVG/1.1/DTD/svg11.dtd">
<svg version="1.1" id="Layer_1" xmlns="http://www.w3.org/2000/svg" xmlns:xlink="http://www.w3.org/1999/xlink" x="0px" y="0px"
	 width="612px" height="792px" viewBox="0 0 612 792" enable-background="new 0 0 612 792" xml:space="preserve">
<path fill="#00F923" d="M196.791,638.573c3.013-1.292,5.272-1.829,7.102-3.015c33.677-19.583,67.354-39.271,101.139-58.854
	c3.658-2.152,5.165-4.949,5.057-9.146c-0.216-6.887,0-13.771-0.105-20.551c0-3.229,0.968-4.949,4.731-4.732
	c7.316,0.32,14.633,0.32,21.842,0.105c3.769-0.105,5.165,1.507,5.272,4.949c0,13.88,0.105,27.76,0,41.64
	c0,3.873-2.475,6.025-5.702,7.854c-27.007,15.709-54.013,31.523-81.02,47.342c-14.633,8.606-29.158,17.431-43.898,25.93
	c-2.905,1.724-6.671,2.69-10.006,2.798c-10.544,0.323-21.196,0.107-31.741,0.217c-4.196,0.106-5.487-1.613-5.487-5.597
	c0.107-28.835,0.107-57.776,0.107-86.611c0-6.241-0.43-6.563-6.563-6.456c-16.139,0.32-32.278,1.396-48.418,0.858
	c-23.456-0.858-45.405-22.702-47.019-46.266c-0.753-10.113-0.753-20.229-0.753-30.449c0-4.304-1.506-6.994-5.38-8.715
	c-17.753-7.854-35.506-15.816-53.152-23.671c-2.259-0.969-3.228-5.38-2.259-8.931c2.367-8.607,4.734-17.217,6.563-25.933
	c7.854-37.335,13.45-75.208,23.563-111.791c19.475-70.044,65.633-115.019,136.323-133.203c23.456-6.025,47.665-6.67,71.766-1.937
	c7.854,1.506,7.854,1.399,4.304,8.715c-3.121,6.24-6.348,12.481-9.253,18.829c-1.614,3.443-4.088,4.411-7.639,3.981
	c-53.044-6.348-96.835,11.835-132.126,51.107c-20.013,22.165-31.095,48.848-36.583,78.114c-5.272,27.652-11.19,55.088-16.785,82.632
	c-0.753,3.767-1.614,7.532-2.367,11.298c-1.076,5.164-0.215,6.778,4.734,9.038c11.405,5.164,22.917,10.329,34.323,15.493
	c3.873,1.722,7.747,3.767,11.728,5.271c3.121,1.186,4.412,3.12,4.304,6.456c-0.108,14.74-0.215,29.48,0,44.224
	c0.107,9.896,3.873,17.858,13.772,21.626c2.259,0.859,4.734,1.396,7.101,1.396c23.563-0.646,47.127-1.612,70.69-2.366
	c12.912-0.431,11.297-1.075,11.297,10.545c0,26.575,0,53.15,0.108,79.729C196.038,632.763,196.468,635.13,196.791,638.573z"/>
<path fill="#00F923" d="M174.412,469.757c1.506,0.215,3.335,0.107,4.626,0.753c4.411,2.477,8.5,1.186,12.696-0.538
	c20.766-8.067,41.531-16.14,62.297-24.102c5.487-2.151,6.025-1.722,6.348,4.196c0.43,8.067-0.215,9.036-7.747,11.941
	c-19.475,7.531-38.949,14.85-58.209,22.595c-2.689,1.076-5.164,3.553-6.67,6.025c-2.367,3.981-5.165,6.778-9.684,7.747
	c-7.747,1.722-15.494,3.766-23.348,5.057c-8.285,1.291-13.88-2.582-15.924-10.112c-1.937-7.208,1.399-15.063,8.715-17.432
	c8.823-2.798,17.968-4.412,27.006-6.563C174.304,469.434,174.304,469.541,174.412,469.757z"/>
<path fill="#00F923" d="M608.127,264.681c-10.329-51.861-37.443-92.209-81.665-121.152c-17.431-11.513-36.905-17.86-56.81-23.24
	c-6.889-1.829-7.747-1.506-6.994,5.487c2.26,21.734,4.732,43.468,7.102,65.095c1.398,12.589,2.797,25.285,3.98,37.981
	c0.538,5.379-0.43,6.24-5.702,6.778c-3.658,0.323-7.531,0.538-10.975,1.722c-6.456,2.259-12.591,5.272-19.582,8.177
	c-0.646-1.937-1.509-3.873-1.938-5.917c-5.164-22.487-10.329-45.083-15.493-67.677c-3.766-16.247-7.424-32.494-11.188-48.741
	c-0.753-3.228-2.261-4.949-6.024-3.873c-4.95,1.398-10.114,1.937-14.956,3.335c-68.215,20.335-111.253,65.417-128.361,133.956
	c-10.329,41.316-17.538,83.494-26.038,125.348c-1.398,6.886-1.398,6.886,4.842,9.684c17.968,8.069,35.829,16.354,53.905,24.208
	c5.165,2.262,7.316,5.487,7.316,11.189c-0.215,17.323-0.108,34.646,0,51.861c0.107,14.633,9.792,24.424,24.532,24.424
	c8.715,0,17.43-0.538,26.146-0.861c21.091-0.753,42.284-1.613,63.373-2.475c6.24-0.215,6.994,0.322,6.994,6.563
	c0,34.433,0,68.861,0,103.399c0,1.291-0.105,2.582,0,3.873c0.215,2.688,1.613,3.551,4.088,2.367
	c1.076-0.538,2.045-1.076,3.015-1.724c39.918-23.456,79.836-46.911,119.754-70.26c4.626-2.689,6.455-6.133,6.455-11.513
	c-0.216-29.911-0.107-59.716-0.216-89.626c0-4.627,1.397-8.18,4.52-11.62c5.918-6.563,12.158-13.021,17.323-20.121
	C607.266,367.111,618.778,318.37,608.127,264.681z M500.854,297.712c-1.396,10.544-6.671,18.506-16.245,23.133
	c-4.411,2.152-5.812,5.057-5.812,9.792c0.215,23.025,0.107,46.05,0.107,69.076c0,6.671-0.971,7.962-7.316,10.329
	c-26.038,9.898-51.969,19.798-77.897,30.02c-2.477,0.97-4.949,3.335-6.35,5.702c-2.798,4.844-6.778,7.642-11.941,8.933
	c-6.35,1.611-12.806,3.12-19.151,4.411c-8.823,1.827-16.247-2.8-18.722-11.405c-1.938-6.563,2.798-14.955,10.544-17.322
	c10.865-3.336,21.842-6.779,33.568-4.196c2.582,0.538,5.702,0.107,8.284-0.859c23.35-8.822,46.589-17.86,69.938-26.686
	c3.873-1.506,4.626-4.196,4.626-7.747c-0.107-10.329,0-20.55,0-30.879c0-7.532-0.107-14.956,0-22.487c0-2.475,0-4.95,0.105-7.532
	c0.107-4.304-1.291-7.102-5.38-9.146c-12.05-6.241-18.506-18.506-16.569-30.665c2.046-13.234,11.405-22.918,24.747-25.715
	C485.36,260.807,503.438,278.775,500.854,297.712z"/>
</svg>
