<?xml version="1.0" encoding="utf-8"?>
<!-- Generator: Adobe Illustrator 16.0.0, SVG Export Plug-In . SVG Version: 6.00 Build 0)  -->
<!DOCTYPE svg PUBLIC "-//W3C//DTD SVG 1.1//EN" "http://www.w3.org/Graphics/SVG/1.1/DTD/svg11.dtd">
<svg version="1.1" id="Layer_1" xmlns="http://www.w3.org/2000/svg" xmlns:xlink="http://www.w3.org/1999/xlink" x="0px" y="0px"
	 width="612px" height="792px" viewBox="0 0 612 792" enable-background="new 0 0 612 792" xml:space="preserve">
<path fill="#00F923" d="M257.016,621.641c1.003-1.561,1.672-2.784,2.452-4.012c14.601-21.734,29.201-43.354,43.69-65.09
	c2.118-3.232,4.568-4.793,8.583-4.793c30.313,0.111,60.743,0.111,91.059,0c3.344,0,5.907,1.003,7.802,3.899
	c14.938,22.181,29.761,44.358,44.693,66.429c0.669,0.892,1.003,2.006,1.783,3.455C390.093,621.641,323.889,621.641,257.016,621.641z
	"/>
<path fill="#00F923" d="M203.294,420.576c-0.111,0-0.223,0-0.223,0c0-56.174,0-112.458,0-168.632
	c0-19.17-12.706-31.765-31.876-31.876c-45.585,0-91.17-0.112-136.644,0c-3.009,0-6.13,0-9.14,0.557
	C10.254,223.746,0,236.898,0,253.059c0,82.477,0.111,164.954,0.111,247.542c0,2.229,0.112,4.349,0.112,6.576
	C0.111,535.04-0.111,562.904,0,590.879c0.111,15.604,11.814,29.313,27.307,30.985c10.7,1.226,21.511,0.443,32.322,0.443
	c36.111,0.111,72.111,0.334,108.223,0.446c21.845,0,35.442-13.821,35.442-35.666C203.294,531.585,203.294,476.08,203.294,420.576z
	 M38.006,547.857c-7.356,0-13.375-6.132-13.263-13.374c0.111-7.022,6.13-12.931,13.263-13.041c7.467,0,13.151,5.796,13.04,13.375
	C50.935,542.174,45.139,547.969,38.006,547.857z M174.427,345.79c-1.783,0.111-3.455,0.111-5.238,0.111
	c-32.991-0.111-65.981-0.223-98.972-0.223c-12.595,0-25.078,0.223-37.672,0.223c-7.356,0-8.359-1.226-8.025-8.471
	c0.223-3.79,0.111-7.579,0-11.368c-0.111-5.35,0.892-6.464,6.353-6.464c23.74,0,47.591,0,71.331,0l0,0c23.406,0,46.7,0,70.105,0
	c6.13,0,6.464,0.334,6.464,6.464c0,5.015-0.111,9.919,0,14.935C178.885,344.118,177.437,345.566,174.427,345.79z M173.09,295.635
	c-47.591-0.111-95.183-0.111-142.774,0c-4.124,0-5.907-1.783-5.907-5.684c0-13.375,0-26.861,0-40.235
	c0-4.347,2.229-5.685,6.464-5.685c5.907,0,11.814,0,17.721,0.112c17.722,0,35.443,0,53.164,0c23.517,0,47.034,0,70.551,0
	c6.019,0,6.576,0.557,6.576,6.464c0,13.152-0.111,26.303,0.112,39.455C178.885,294.074,177.214,295.635,173.09,295.635z"/>
<path fill="#00F923" d="M577.338,169.356c-16.939,0-33.883,0.111-50.824,0.111c-129.063,0-258.241,0-387.306,0
	c-3.79,0-7.579,0.223-11.369,0.78c-11.479,1.561-22.402,12.037-23.74,23.294c2.229,0,4.124,0,6.019,0c72.557,0,145.226,0,217.784,0
	c83.813,0,167.628,0,251.554,0c7.133,0,8.137,1.003,8.248,8.024c0,1.003,0,2.006,0,3.121c0,76.124,0,152.248,0,228.26
	c0,10.923,0,10.923-10.923,10.923c-113.238,0-226.365-0.111-339.604-0.111c-6.798,0-7.133,0.334-7.133,7.133
	c0,21.733,0.111,43.579,0,65.313c0,3.901,1.226,5.35,5.238,5.35c114.911-0.109,229.932-0.109,344.842-0.109
	c2.229,0,4.347-0.111,6.576-0.559c15.492-3.23,25.411-16.05,25.411-32.769c0-94.625,0-189.25,0-283.987
	C612,183.288,597.957,169.356,577.338,169.356z M356.99,497.257c-7.689,0-13.374-5.684-13.265-13.149
	c0.111-7.245,5.907-12.931,13.151-12.931c7.356,0,13.598,6.13,13.486,13.265C370.254,491.461,364.235,497.257,356.99,497.257z"/>
</svg>
