<?xml version="1.0" encoding="utf-8"?>
<!-- Generator: Adobe Illustrator 16.0.0, SVG Export Plug-In . SVG Version: 6.00 Build 0)  -->
<!DOCTYPE svg PUBLIC "-//W3C//DTD SVG 1.1//EN" "http://www.w3.org/Graphics/SVG/1.1/DTD/svg11.dtd">
<svg version="1.1" id="Layer_1" xmlns="http://www.w3.org/2000/svg" xmlns:xlink="http://www.w3.org/1999/xlink" x="0px" y="0px"
	 width="612px" height="792px" viewBox="0 0 612 792" enable-background="new 0 0 612 792" xml:space="preserve">
<path fill="#00F923" d="M528.659,539.715c0,39.505,0,78.878,0,118.384c0,6.037-0.656,6.693-6.694,6.693
	c-53.154,0-106.309,0-159.464,0c-6.693,0-7.479-0.656-7.479-7.35c0-37.801,0-75.469,0-113.268c0-7.479,0-14.962,0-22.441
	c0-7.352-1.184-8.399-8.531-8.53c-8.793-0.132-17.587,0-26.38,0c-18.637,0.131-37.145,0.131-55.78,0.262
	c-7.744,0-8.663,0.919-8.663,8.662c0,43.837,0,87.542,0,131.378c0,1.313,0,2.625,0,3.938c-0.131,6.822-0.656,7.479-7.481,7.479
	c-52.761,0-105.391,0-158.151,0c-6.825,0-7.875-1.05-7.875-7.612c0-78.091,0-156.183,0-234.271c0-1.707,0.131-3.413,0.525-5.119
	c1.575-7.479,6.693-11.55,14.043-11.155c6.431,0.264,11.813,5.646,12.469,12.73c0.262,3.412,0.131,6.956,0.131,10.368
	c0,66.277,0,132.559,0,198.838c0,8.925,1.05,9.975,9.975,9.975c33.074,0,66.279,0,99.353,0c8.269,0,9.187-0.919,9.187-9.188
	c0-44.755,0-89.643,0-134.396c0-7.612,0-7.743,7.612-7.743c46.067,0,92.135,0,138.333,0c8.269,0,8.531,0.264,8.531,8.53
	c-0.132,43.442-0.132,87.017-0.265,130.459c0,11.943,0.265,12.206,12.338,12.206c32.813,0,65.623,0,98.565,0
	c7.48,0,8.399-0.919,8.399-8.4c0-69.035,0-137.938,0-206.975c0-8.662,2.625-13.125,9.057-15.487
	c9.187-3.279,17.587,2.231,17.979,11.943c0.265,5.906,0.133,11.813,0.133,17.719C528.659,471.467,528.659,505.591,528.659,539.715z"
	/>
<path fill="#00F923" d="M305.672,127.208c12.469,11.288,24.412,22.05,36.355,32.943c82.814,75.204,165.632,150.408,248.446,225.875
	c7.087,6.431,13.39,13.781,19.949,20.736c2.103,2.231,1.838,4.332,0.396,6.957c-6.037,10.895-15.226,12.861-24.543,4.593
	c-25.462-22.834-50.793-45.936-76.256-69.035c-61.423-55.779-122.846-111.428-184.269-167.207
	c-5.119-4.594-10.237-9.319-15.355-13.912c-4.067-3.675-6.167-3.675-10.104,0c-45.149,40.949-90.166,81.897-135.315,122.846
	c-38.586,35.042-77.435,69.823-116.152,104.734c-7.612,6.825-14.962,13.914-22.706,20.605c-2.756,2.363-6.038,4.594-9.581,5.646
	c-7.875,2.229-18.899-5.118-16.274-16.801c0.394-1.442,1.837-2.888,3.019-4.067c17.062-15.618,34.255-31.367,51.448-46.854
	c76.648-69.691,153.295-139.121,229.943-208.55C291.498,139.545,298.453,133.508,305.672,127.208z"/>
<path fill="#00F923" d="M469.073,174.457c17.587,0,35.174,0,52.761,0c6.693,0,6.956,0.262,6.956,6.693c0,31.893,0,63.654,0,95.547
	c0,6.825-3.019,11.156-8.925,13.256c-5.646,1.969-11.943,0.656-14.962-4.331c-1.838-2.887-3.021-6.693-3.021-9.975
	c-0.263-22.049-0.131-44.099-0.131-66.148c0-6.956-0.919-7.875-8.007-7.875c-24.674,0-49.217,0.131-73.894-0.131
	c-4.329,0-8.793-1.444-12.859-2.756c-4.331-1.444-7.352-4.331-7.219-9.581c0.131-5.644,1.837-10.368,7.35-12.6
	c3.019-1.181,6.432-1.837,9.581-1.969C433.899,174.326,451.486,174.457,469.073,174.457L469.073,174.457z"/>
</svg>
