<?xml version="1.0" encoding="utf-8"?>
<!-- Generator: Adobe Illustrator 16.0.0, SVG Export Plug-In . SVG Version: 6.00 Build 0)  -->
<!DOCTYPE svg PUBLIC "-//W3C//DTD SVG 1.1//EN" "http://www.w3.org/Graphics/SVG/1.1/DTD/svg11.dtd">
<svg version="1.1" id="Layer_1" xmlns="http://www.w3.org/2000/svg" xmlns:xlink="http://www.w3.org/1999/xlink" x="0px" y="0px"
	 width="612px" height="792px" viewBox="0 0 612 792" enable-background="new 0 0 612 792" xml:space="preserve">
<path fill="#A8A8A8" d="M545.643,161.08C509.886,96.098,457.625,49.682,386.626,25.873c-19.854-6.619-40.313-10.573-61.2-12.034
	c-5.587-0.344-11.088-0.602-16.675-0.946c-1.462-0.086-2.923-0.516-4.384-0.773c-3.266,0-6.619,0-9.885,0
	c-1.719,0.258-3.438,0.859-5.157,0.859c-76.156,2.235-139.505,32.319-191.422,87.502c-33.608,35.757-56.645,77.102-67.303,125.15
	c-4.642,20.801-6.447,41.86-6.791,63.177c-1.375,81.399,30.944,148.272,89.049,203.284c35.929,33.952,78.649,56.561,127.299,66.615
	c15.042,3.094,30.514,3.954,45.814,5.845c2.836,0.344,5.759,0.688,8.595,1.031c3.267,0,6.619,0,9.885,0
	c1.977-0.344,3.954-0.859,5.931-0.945c113.547-3.522,211.277-76.672,249.871-181.279c7.736-20.973,13.065-42.548,15.128-64.81
	C580.454,263.366,572.633,210.16,545.643,161.08z M305.055,516.676C179.99,519.083,72.546,419.461,71.429,290.614
	C70.311,164.002,173.629,59.137,301.53,61.2c119.306-1.805,223.655,99.02,226.921,222.28
	C531.632,405.45,430.807,514.27,305.055,516.676z"/>
<path fill="#A8A8A8" d="M94.121,360.237c6.791-2.406,12.55-4.47,18.395-6.446c11.432-3.954,22.95-7.822,34.382-11.947
	c2.751-1.032,4.04-0.517,5.158,2.234c2.148,5.243,4.469,10.486,6.876,15.644c1.375,2.837,0.688,4.642-2.148,6.189
	c-14.957,7.993-29.827,16.073-44.783,24.067c-1.375,0.773-3.008,2.148-4.126-0.172C103.318,380.094,98.848,370.38,94.121,360.237z"
	/>
<path fill="#A8A8A8" d="M112.429,289.067c8.338,0,16.675,0.086,25.013-0.086c3.18-0.086,4.899,0.602,4.985,4.298
	c0.172,5.931,0.688,11.862,1.117,17.707c0.172,2.579-1.289,3.696-3.524,4.04c-16.074,2.578-32.147,5.157-48.135,7.563
	c-5.931,0.946-6.446,0.688-7.048-5.329c-0.946-8.251-1.375-16.589-2.063-24.841c-0.172-2.75,1.461-3.352,3.868-3.352
	C95.238,289.067,103.833,289.067,112.429,289.067z"/>
<path fill="#A8A8A8" d="M487.709,289.067c8.338,0,16.676,0.086,25.099-0.086c3.011-0.086,4.472,0.859,4.212,4.126
	c-0.688,8.337-1.029,16.675-1.719,24.926c-0.43,4.986-1.031,5.416-6.445,4.556c-11.947-1.719-23.896-3.695-35.931-5.587
	c-4.212-0.688-8.424-1.375-12.722-1.977c-3.266-0.43-4.556-1.806-3.953-5.329c0.859-5.501,1.375-11.002,1.633-16.589
	c0.172-3.524,1.979-4.298,5.157-4.212C471.292,289.153,479.457,289.067,487.709,289.067z"/>
<path fill="#A8A8A8" d="M127.815,155.922c10.315,7.908,20.114,15.472,29.999,22.95c4.384,3.352,8.854,6.791,13.237,10.143
	c2.063,1.547,3.18,3.438,1.633,5.845c-3.782,6.103-7.65,12.12-11.69,18.48c-17.449-9.627-34.554-19.082-52.088-28.795
	C115.18,175.004,121.283,165.721,127.815,155.922z"/>
<path fill="#A8A8A8" d="M446.622,129.706c-12.549,13.151-24.927,26.216-37.304,39.196c-2.063,2.149-3.954,2.321-6.275,0.43
	c-4.47-3.524-8.939-7.048-13.495-10.487c-1.719-1.289-2.146-2.493-0.857-4.383c9.627-14.613,19.082-29.225,28.709-43.837
	c1.202-1.805,2.665-3.266,4.897-1.375c7.822,6.36,15.73,12.721,23.552,19.168C446.106,128.589,446.192,129.019,446.622,129.706z"/>
<path fill="#A8A8A8" d="M180.333,107.014c6.876,10.4,13.323,20.199,19.684,30.084c3.266,5.072,6.532,10.229,9.713,15.386
	c2.493,4.04,2.321,4.899-1.461,7.908c-3.782,3.008-7.736,5.759-11.346,8.854c-2.75,2.321-4.813,1.805-7.134-0.688
	c-9.283-10.143-18.738-20.199-28.107-30.256c-2.149-2.321-4.47-4.47-6.791-6.619c-1.204-1.117-2.321-2.235-0.516-3.696
	C162.799,121.025,171.223,114.32,180.333,107.014z"/>
<path fill="#A8A8A8" d="M340.124,134.176c1.72-6.962,3.267-13.151,4.728-19.254c2.579-10.83,5.157-21.575,7.822-32.405
	c1.031-4.297,1.547-4.555,5.673-3.008c8.252,2.922,16.417,5.931,24.669,8.768c3.011,1.031,3.61,2.493,2.321,5.329
	c-6.877,15.042-13.581,30.17-20.372,45.298c-2.146,4.728-2.32,4.728-7.048,3.094c-4.813-1.633-9.541-3.266-14.269-5.071
	C342.188,136.411,341.155,135.035,340.124,134.176z"/>
<path fill="#A8A8A8" d="M211.708,486.936c-1.375-0.602-2.149-0.943-2.923-1.375c-7.392-3.952-14.698-7.82-22.09-11.86
	c-4.126-2.234-4.384-3.183-1.891-7.048c9.025-13.927,18.137-27.766,26.99-41.688c1.719-2.751,3.352-3.095,6.103-1.375
	c4.642,2.75,9.541,5.243,14.354,7.649c2.665,1.375,3.696,2.837,2.235,5.932c-6.962,15.472-13.581,31.029-20.457,46.501
	C213.598,484.872,212.481,485.904,211.708,486.936z"/>
<path fill="#A8A8A8" d="M260.014,133.918c-0.774,0.688-1.547,1.977-2.665,2.407c-5.759,2.235-11.604,4.298-17.363,6.447
	c-3.094,1.117-3.782-1.375-4.556-3.267c-5.845-13.151-11.604-26.388-17.363-39.539c-1.031-2.407-2.063-4.899-3.18-7.306
	c-0.946-1.977-0.602-3.524,1.547-4.298c9.025-3.18,18.136-6.275,27.248-9.455c2.321-0.773,2.493,0.688,2.922,2.235
	c3.266,12.463,6.533,24.927,9.713,37.391C257.436,123.518,258.639,128.503,260.014,133.918z"/>
<path fill="#A8A8A8" d="M314.51,453.155c0-0.172,0-0.604,0-0.945c-0.258-6.018-0.172-6.104,5.587-7.049
	c4.472-0.773,8.939-1.461,13.409-2.32c3.008-0.603,4.729,0.172,5.587,3.354c4.212,16.418,8.511,32.749,12.724,49.081
	c0.688,2.576,0.172,4.211-3.097,4.728c-8.854,1.461-17.621,3.18-26.389,4.985c-3.438,0.688-3.523-1.722-3.781-3.782
	c-0.688-4.899-1.204-9.799-1.548-14.698C316.057,475.503,315.283,464.501,314.51,453.155z"/>
<path fill="#A8A8A8" d="M450.92,341.155c1.894,0.516,2.923,0.774,4.04,1.204c14.956,5.243,29.826,10.4,44.782,15.644
	c5.33,1.891,5.76,2.578,3.522,7.563c-3.266,7.564-6.876,14.957-10.313,22.435c-1.203,2.579-2.751,2.751-5.157,1.461
	c-14.87-8.079-29.826-16.073-44.782-24.067c-2.405-1.289-3.267-2.664-1.892-5.415c2.493-5.071,4.642-10.4,7.135-15.558
	C448.771,343.047,450.061,342.102,450.92,341.155z"/>
<path fill="#A8A8A8" d="M439.66,212.051c-0.945-0.774-2.321-1.461-3.095-2.579c-3.438-4.985-6.618-10.143-10.059-15.214
	c-1.375-2.063-0.086-2.922,1.289-3.954c12.12-9.369,24.239-18.738,36.359-28.107c8.424-6.533,7.648-6.533,13.409,2.235
	c3.438,5.243,7.048,10.486,10.57,15.815c2.321,3.61,2.063,4.9-1.633,6.962c-14.526,7.994-29.139,15.902-43.665,23.81
	C441.98,211.363,441.121,211.535,439.66,212.051z"/>
<path fill="#A8A8A8" d="M460.547,261.475c-3.094,0.344-4.813-0.773-5.415-3.954c-1.117-5.329-2.32-10.573-3.868-15.816
	c-0.771-2.665,0.086-4.212,2.493-4.985c16.073-5.501,32.233-11.002,48.395-16.503c2.405-0.773,4.04,0.258,4.728,2.493
	c2.493,8.596,4.813,17.277,7.135,25.873c0.859,3.352-1.634,3.782-3.868,4.212c-9.799,1.805-19.598,3.524-29.396,5.243
	C473.956,259.24,467.252,260.358,460.547,261.475z"/>
<path fill="#A8A8A8" d="M418.257,470.861c-9.282,4.898-18.394,9.713-27.505,14.611c-2.063,1.117-3.267,0.432-4.126-1.548
	c-6.963-16.073-14.011-32.146-20.974-48.307c-0.859-2.063-0.172-3.269,1.72-4.298c5.243-2.75,10.486-5.501,15.729-8.338
	c1.894-1.031,3.354-0.859,4.558,0.944c10.143,15.214,20.285,30.516,30.428,45.729C418.171,469.916,418.085,470.174,418.257,470.861z
	"/>
<path fill="#A8A8A8" d="M407.856,404.591c5.587-6.273,10.917-12.12,16.504-18.309c2.664,1.977,5.069,3.782,7.392,5.587
	c11.776,9.111,23.552,18.309,35.328,27.506c3.521,2.75,3.521,3.868,0.602,7.048c-5.501,5.933-11.002,11.948-16.418,17.879
	c-1.977,2.234-3.953,3.097-6.358,0.518C432.783,431.494,420.492,418.257,407.856,404.591z"/>
<path fill="#A8A8A8" d="M152.141,448.17c-7.134-7.65-14.097-15.128-21.059-22.691c-1.633-1.72-1.461-3.182,0.516-4.643
	c13.667-10.572,27.333-21.316,40.915-31.976c2.063-1.633,3.782-1.633,5.587,0.43c3.782,4.298,7.564,8.51,11.346,12.722
	c1.805,2.063,1.805,4.126,0,6.104C177.239,421.266,164.862,434.503,152.141,448.17z"/>
<path fill="#A8A8A8" d="M138.989,261.131c-9.283-1.461-19.855-3.18-30.428-4.899c-6.446-1.031-12.893-2.321-19.426-3.266
	c-2.75-0.43-3.61-1.633-2.836-4.384c2.235-8.424,4.298-16.847,6.361-25.357c0.773-3.266,2.836-4.04,5.673-3.094
	c15.816,5.587,31.631,11.174,47.447,16.847c2.407,0.859,3.524,2.407,2.75,5.329c-1.375,4.985-2.235,10.057-3.352,15.128
	C144.404,260.959,143.889,261.303,138.989,261.131z"/>
<path fill="#A8A8A8" d="M300.499,72.374c4.298,0,8.596,0.086,12.894,0c2.836-0.086,3.867,1.118,3.609,3.868
	c-0.945,10.658-1.719,21.403-2.664,32.061c-0.516,6.447-1.29,12.808-1.806,19.254c-0.172,2.579-1.375,3.61-3.867,3.61
	c-5.845-0.086-11.69,0-17.449,0c-2.407,0-3.782-1.118-3.954-3.61c-1.289-16.503-2.665-33.006-3.782-49.51
	c-0.43-5.501-0.086-5.587,5.329-5.673C292.591,72.288,296.545,72.374,300.499,72.374L300.499,72.374z"/>
<path fill="#A8A8A8" d="M285.285,457.023c-1.031,14.354-2.235,29.396-3.266,44.353c-0.172,2.492-1.461,3.438-3.696,3.008
	c-9.197-1.461-18.394-2.922-27.591-4.556c-3.524-0.604-2.407-3.354-1.891-5.415c2.75-10.744,5.501-21.488,8.338-32.232
	c1.461-5.501,2.836-11.003,4.211-16.504c0.602-2.404,2.063-3.353,4.47-2.836c5.071,0.945,10.143,1.979,15.3,2.664
	c3.524,0.518,4.813,2.063,4.211,5.587C285.027,452.813,285.285,454.616,285.285,457.023z"/>
<path fill="#A8A8A8" d="M141.138,382.586c5.329,0,9.455,4.04,9.455,9.197s-4.813,9.971-9.885,9.971
	c-4.642,0-9.455-5.157-9.369-10.057C131.425,387.056,136.239,382.586,141.138,382.586z"/>
<path fill="#A8A8A8" d="M296.115,143.287c-80.884,1.977-144.318,69.452-141.826,150.164c2.321,77.101,66.529,142.599,149.046,140.88
	c82.001-1.72,143.458-70.655,142.255-144.749C446.794,209.559,380.007,141.224,296.115,143.287z M300.585,386.712
	c-47.361,0.43-98.075-40.399-98.677-97.559c-0.516-46.244,39.969-97.645,98.075-98.247c47.792-0.516,100.396,42.634,97.473,98.762
	C400.379,337.374,355.424,386.196,300.585,386.712z"/>
<path fill="#A8A8A8" d="M369.349,304.625c-2.664-6.704-10.057-9.799-17.019-6.618c-4.212,1.977-8.166,2.149-12.378,0.258
	c-1.461-0.688-3.095-1.118-4.644-1.633c-5.673-1.891-6.876-3.438-6.79-9.369c0.174-7.306-2.663-13.237-7.563-18.395
	c-1.203-1.289-2.836-2.321-3.696-3.782c-0.943-1.461-1.977-3.61-1.633-5.071c2.063-7.134,4.04-14.269,11.948-17.793
	c5.415-2.407,7.306-7.908,5.759-13.409c-1.634-5.931-6.275-9.627-12.12-9.541c-9.627,0.086-15.386,6.79-12.205,15.386
	c2.492,6.791,1.461,12.463-0.946,18.91c-1.891,5.071-4.381,7.478-9.71,7.306c-8.854-0.258-15.902,3.438-21.403,10.314
	c-1.891,2.321-4.212,3.009-7.134,1.891c-3.008-1.203-6.361-2.063-9.111-3.782c-2.321-1.461-4.04-3.868-5.845-5.931
	c-1.805-2.063-3.008-4.813-5.157-6.274c-5.158-3.524-12.722-2.063-16.933,2.579c-3.954,4.383-3.954,10.744,0,16.073
	c3.524,4.728,9.971,6.447,15.558,3.353c3.868-2.149,7.306-2.235,11.088-0.172c1.117,0.602,2.321,0.945,3.524,1.375
	c7.564,2.665,7.564,2.665,8.08,10.831c0,0.602,0.172,1.289,0.258,1.891c0.688,7.478,4.985,13.151,9.885,18.308
	c3.18,3.353,3.524,7.049,1.805,11.174c-2.148,5.158-4.899,9.369-10.143,12.206c-6.274,3.438-8.166,10.916-5.157,16.762
	c2.836,5.501,10.572,8.423,16.332,6.188c6.361-2.493,9.111-9.971,6.619-17.191c-0.946-2.664-1.633-5.673-1.29-8.338
	c0.43-3.438,2.063-6.79,3.18-10.143c1.118-3.438,3.696-5.329,7.221-4.899c8.25,0.859,14.698-1.719,20.113-8.079
	c3.782-4.47,8.854-5.587,14.44-3.267c5.243,1.977,9.541,4.556,12.119,9.885c3.009,6.274,10.229,8.338,16.504,5.415
	C368.747,318.292,371.756,310.728,369.349,304.625z M301.874,278.494c-0.773,0.43-1.547,0.774-2.407,1.118
	c-4.642,1.547-7.908,4.04-8.681,9.369c-0.43,2.922-2.493,4.642-5.759,4.04c-2.922-0.516-3.782-2.579-3.782-6.275
	c0-6.189,8.251-15.644,15.472-16.332c1.633-0.172,3.61,0.258,5.071,1.032C305.227,273.251,305.141,276.432,301.874,278.494z"/>
</svg>
