<?xml version="1.0" encoding="utf-8"?>
<!-- Generator: Adobe Illustrator 21.0.0, SVG Export Plug-In . SVG Version: 6.00 Build 0)  -->
<svg version="1.1" id="Layer_1" xmlns="http://www.w3.org/2000/svg" xmlns:xlink="http://www.w3.org/1999/xlink" x="0px" y="0px"
	 viewBox="0 0 612 792" style="enable-background:new 0 0 612 792;" xml:space="preserve">
<style type="text/css">
	.st0{fill:#A8A8A8;}
</style>
<g>
	<g>
		<path class="st0" d="M602.2,277.8c-1.1-16.7-4-33.2-8.2-49.4c-6.1-23.7-15-46.4-26.7-68s-25.8-41.5-42.5-59.5
			c-11.2-12.1-23.2-23.4-36.3-33.6c-32.7-25.5-69-43.4-109.1-53.9c-20.6-5.4-41.6-8.7-63-8.9c-18.8-0.2-37.7-0.2-56.4,2.7
			c-29.5,4.6-57.9,13.2-84.8,26.1c-26.5,12.7-50.7,29-72.3,48.9c-17.6,16.2-33.3,34-46.6,54c-17.5,26.2-30.7,54.5-39.4,84.9
			c-4.7,16.4-8,33.1-9.7,50.1c-0.4,4.5-0.1,9.1-0.9,13.5c0,1.2,0,2.4,0,3.6c0.5,0.8,0.5,1.6,0,2.4c0,1,0,2,0,3
			c0.7,1.2,0.2,2.4,0.3,3.7c-0.2,1.2,0.3,2.5-0.3,3.6c0,1.4,0,2.8,0,4.3c0.5,2,0.5,4.1,0,6.1c0,1,0,2,0,3c0.5,0.6,0.2,1.3,0.3,1.9
			c-0.1,0.8,0.3,1.6-0.3,2.3c0,0.8,0,1.6,0,2.4c0.4,0.4,0.3,0.9,0.3,1.4c0,8.3,0.9,16.6,2.1,24.8c5.5,35.8,16.9,69.6,34.6,101.3
			c16.7,29.3,37.6,55,62.7,77.5c19.7,17.7,41.5,32.4,65.2,44.2c22,11,45.1,19.1,69.2,24.4c10.7,2.4,21.5,4.2,32.4,5.2
			c4.5,0.4,9.1,0.1,13.5,0.9c0.8,0,1.6,0,2.4,0c1.2-0.5,2.4-0.5,3.6,0c1.2,0,2.4,0,3.6,0c2.2-0.5,4.5-0.5,6.7,0c1.2,0,2.4,0,3.6,0
			c2-0.5,4.1-0.5,6.1,0c1.2,0,2.4,0,3.6,0c1.2-0.5,2.4-0.5,3.6,0c0.6,0,1.2,0,1.8,0c0.7-0.6,1.6-0.3,2.3-0.3
			c6.9-0.2,13.7-0.5,20.6-1.5c35.9-5.1,69.8-15.9,101.8-33.1c21.7-11.7,41.7-25.8,59.8-42.5c17.7-16.2,33.4-34.2,46.7-54.2
			s24.2-41.2,32.4-63.8c9.5-26.1,15.6-53.1,17.2-80.9C603.3,309,603.2,293.4,602.2,277.8z M273.1,440.7c-30.2,0-60.4,0-90.6,0
			c-9.7,0-14.8-5.1-14.8-14.8c0-30.2,0-60.4,0-90.6c0-9.4,5.1-14.5,14.4-14.5c15.2,0,30.4,0,45.6,0s30.4,0,45.6,0
			c9.4,0,14.4,5,14.4,14.4c0,30.3,0,60.6,0,90.9C287.7,435.7,282.6,440.7,273.1,440.7z M287.7,280.3c0,9.6-5,14.6-14.5,14.6
			c-30.3,0-60.6,0-90.9,0c-9.5,0-14.5-5.1-14.6-14.7c0-30.2,0-60.4,0-90.6c0-9.6,5-14.6,14.6-14.6c30.3,0,60.6,0,90.9,0
			c9.5,0,14.5,5,14.5,14.7c0,15.1,0,30.2,0,45.3C287.7,250.1,287.7,265.2,287.7,280.3z M434.6,426.2c0,9.3-5.2,14.5-14.4,14.5
			c-30.4,0-60.8,0-91.2,0c-9.2,0-14.3-5.1-14.3-14.3c0-30.5,0-61,0-91.5c0-9.2,5.1-14.2,14.4-14.2c15.2,0,30.4,0,45.6,0
			s30.4,0,45.6,0c9.3,0,14.4,5.1,14.4,14.5C434.6,365.6,434.6,395.9,434.6,426.2z M436.2,249c-18,18.2-36.2,36.3-54.4,54.4
			c-2.5,2.5-5.5,3.8-9,3.7c-3.5,0.1-6.6-1.1-9-3.6c-18.2-18.2-36.4-36.4-54.6-54.6c-5.1-5.2-5.1-12.8,0.1-18
			c18.1-18.2,36.2-36.3,54.4-54.4c5.3-5.3,12.9-5.2,18.2,0.1c18.1,18,36.2,36.1,54.2,54.2C441.4,236.2,441.6,243.6,436.2,249z"/>
	</g>
</g>
</svg>
