<?xml version="1.0" encoding="utf-8"?>
<!-- Generator: Adobe Illustrator 16.0.0, SVG Export Plug-In . SVG Version: 6.00 Build 0)  -->
<!DOCTYPE svg PUBLIC "-//W3C//DTD SVG 1.1//EN" "http://www.w3.org/Graphics/SVG/1.1/DTD/svg11.dtd">
<svg version="1.1" id="Layer_1" xmlns="http://www.w3.org/2000/svg" xmlns:xlink="http://www.w3.org/1999/xlink" x="0px" y="0px"
	 width="612px" height="792px" viewBox="0 0 612 792" enable-background="new 0 0 612 792" xml:space="preserve">
<path fill="#00F923" d="M521.661,594.04c-0.859-10.83-1.719-21.746-3.782-32.318c-7.734-40.056-28.105-72.977-58.277-100.052
	c-18.137-16.332-38.938-28.193-61.544-37.047c-1.461-0.602-2.836-1.289-4.728-2.148c1.376-1.116,2.148-1.806,3.009-2.405
	c3.095-2.063,6.274-4.126,9.283-6.188c34.124-23.981,52.519-56.902,54.925-98.419c1.204-21.833-4.04-42.375-15.042-61.372
	c-14.011-24.412-32.921-43.751-58.621-55.871c-15.644-7.392-32.146-11.518-49.338-13.151c-13.581-1.375-27.162-1.461-40.571,1.031
	c-21.145,3.954-40.227,12.722-57.676,25.185c-33.351,23.81-50.37,56.644-52.862,97.043c-1.29,21.059,4.298,41.001,13.925,59.653
	c10.916,21.231,27.162,37.563,47.361,50.198c1.805,1.117,3.61,2.406,5.587,3.781c-0.602,0.774-0.773,1.118-1.032,1.204
	c-1.203,0.516-2.407,1.117-3.61,1.547c-37.734,15.042-69.108,38.164-92.23,72.03c-20.199,29.48-29.998,62.146-31.288,97.56
	c-0.344,9.799,8.854,17.362,18.309,15.3c8.509-1.892,12.721-7.049,12.635-16.246c0-24.409,6.103-47.445,18.223-68.42
	c29.654-51.571,75.382-78.391,133.833-84.666c17.02-1.805,34.036-0.602,50.8,2.925c40.313,8.51,73.921,28.191,99.536,60.685
	c15.899,20.113,26.388,42.806,30.17,68.334c1.203,8.166,1.633,16.417,2.147,24.669c0.604,7.736,6.876,13.581,15.56,13.151
	C516.16,609.341,522.349,602.808,521.661,594.04z M329.981,410.698c-46.674,2.319-84.837-20.285-103.578-58.621
	c-17.019-34.898-11.776-68.764,11.26-99.106c17.879-23.638,43.235-35.843,72.46-39.883c3.353-0.43,6.79-0.688,11.518-1.118
	c34.384,0.344,64.555,12.721,87.505,40.743c12.463,15.214,19.168,32.663,20.455,52.261c2.32,34.124-11.433,60.856-37.133,82.087
	C374.42,402.103,353.275,409.581,329.981,410.698z"/>
</svg>
