<?xml version="1.0" encoding="utf-8"?>
<!-- Generator: Adobe Illustrator 16.0.0, SVG Export Plug-In . SVG Version: 6.00 Build 0)  -->
<!DOCTYPE svg PUBLIC "-//W3C//DTD SVG 1.1//EN" "http://www.w3.org/Graphics/SVG/1.1/DTD/svg11.dtd">
<svg version="1.1" id="Layer_1" xmlns="http://www.w3.org/2000/svg" xmlns:xlink="http://www.w3.org/1999/xlink" x="0px" y="0px"
	 width="612px" height="792px" viewBox="0 0 612 792" enable-background="new 0 0 612 792" xml:space="preserve">
<path fill="#00F322" d="M457.539,229.215c-1.204,3.094-2.149,6.36-3.782,9.283c-1.461,2.579-3.608,4.813-5.845,6.791
	c-1.634,1.461-2.321,2.922-2.321,4.985c0,7.564,0,15.128,0,22.692c0,31.03,0,62.146,0,93.175c0,12.292-8.08,21.661-20.285,23.466
	c-1.547,0.258-1.719-0.602-1.719-1.805c0-3.61,0-7.135,0-10.744c0-42.376,0.086-84.666,0.086-127.042
	c0-2.063-0.688-3.438-2.321-4.728c-8.166-6.619-11.088-15.386-8.338-24.755c2.579-8.682,11.175-15.386,20.544-15.902
	c9.024-0.516,17.276,4.556,21.061,13.065c1.031,2.321,1.977,4.641,3.009,6.962C457.539,226.206,457.539,227.667,457.539,229.215z"/>
<path fill="#00F322" d="M399.863,343.191c-4.985,0-4.985,0-4.985-4.985c0-21.146,0-42.376,0-63.521c0-1.204,0-2.493-0.086-3.696
	c-0.345-3.524-1.978-6.275-5.33-7.392c-2.492-0.859-5.157-1.547-7.735-1.633c-8.166-0.258-16.33-0.086-24.495-0.172
	c-1.29,0-3.61-0.516-3.782-1.117c-0.258-1.547,0-3.524,0.771-4.985c0.859-1.719,2.493-3.095,3.868-4.556
	c2.234-2.493,4.558-4.985,6.79-7.478c2.665-3.095,1.634-6.791-2.232-7.736c-4.899-1.289-9.887-2.493-14.784-3.524
	c-2.665-0.516-4.298-1.891-5.501-4.126c-2.063-3.782-4.126-7.65-6.361-11.346c-2.836-4.813-7.306-4.642-10.057,0.172
	c-1.289,2.235-2.578,4.384-3.782,6.619c-0.688,1.29-1.719,1.891-3.18,1.547c-7.736-1.547-15.474-3.008-23.208-4.642
	c-1.977-0.43-3.181-1.805-4.212-3.61c-3.782-6.704-7.478-13.409-11.518-19.941c-2.75-4.384-6.275-4.298-8.939,0.086
	c-3.438,5.759-6.704,11.69-10.057,17.449c-0.773,1.375-1.547,2.836-2.665,3.868c-1.117,1.032-2.493,2.063-3.954,2.407
	c-7.478,1.633-14.956,2.922-22.348,4.47c-2.063,0.43-3.266-0.086-4.212-1.891c-1.289-2.321-2.579-4.728-4.04-6.962
	c-2.837-4.384-6.962-4.298-9.541,0.258c-2.321,3.954-4.47,7.994-6.705,12.034c-1.118,2.149-2.665,3.181-5.243,3.524
	c-4.728,0.602-9.455,1.719-14.097,3.008c-4.47,1.204-5.587,5.243-2.493,8.768c3.352,3.868,6.79,7.564,10.229,11.346
	c1.117,1.203,2.063,2.493,1.289,4.211c-0.773,1.805-2.321,1.977-3.954,1.977c-7.392,0.086-14.698,0.172-22.09,0.086
	c-9.541-0.086-11.948,1.461-15.73,9.971c0,58.965,0,118.016,0,176.982c0.602,1.203,1.203,2.406,1.805,3.607
	c2.063,3.868,5.501,5.59,9.799,5.762c0.859,0,1.805,0,2.665,0c70.913,0,141.912-0.086,212.825,0.086
	c6.962,0,12.979-4.558,12.722-12.81c-0.344-10.229-0.086-20.457-0.086-30.771c0-2.923,0.26-3.181,3.182-3.181
	c1.806,0,3.608,0,5.329-0.088c1.892-0.086,3.095-1.029,3.181-3.095c0.086-1.633,0.172-3.266,0.172-4.983c0-17.793,0-35.585,0-53.378
	C406.739,343.793,406.052,343.191,399.863,343.191z M314.252,244.085c1.461-1.032,3.094-2.235,4.813-2.493
	c3.608-0.43,6.103-1.977,7.563-5.416c0.773-1.719,1.892-3.352,2.923-4.985c1.117-1.547,1.979-1.547,2.923,0.086
	c0.688,1.032,1.289,2.149,1.721,3.267c1.719,4.384,5.241,6.532,9.713,7.306c1.117,0.172,2.146,0.344,3.267,0.602
	c3.094,0.602,3.438,1.461,1.375,3.868c-0.945,1.117-1.806,2.321-2.837,3.266c-3.352,3.094-4.04,6.791-3.008,11.088
	c0.258,1.031,0.344,2.149,0.344,3.266c0.086,1.805-0.688,2.407-2.407,1.805c-1.891-0.688-3.694-1.461-5.501-2.407
	c-2.75-1.461-5.415-1.547-8.166,0.086c-1.805,1.031-3.779,1.891-5.759,2.75c-0.43,0.172-0.771,0.258-1.117,0.258
	c-0.943,0-1.461-0.688-1.375-2.063c0.172-1.547,0.346-3.18,0.518-4.728c0.086-0.516,0.172-1.031,0.258-1.547
	c0.516-3.095-0.258-5.673-2.665-7.822c-1.117-1.031-2.148-2.321-2.922-3.696C313.564,245.89,313.736,244.429,314.252,244.085z
	 M244.972,232.911c4.813-1.031,9.627-2.149,14.526-2.922c3.009-0.516,5.072-1.979,6.447-4.556c2.149-3.868,4.298-7.822,6.533-11.69
	c0.688-1.203,1.203-3.094,2.922-2.665c1.032,0.172,1.977,1.547,2.579,2.579c2.407,4.04,4.813,8.166,7.134,12.292
	c1.204,2.149,2.922,3.267,5.329,3.696c5.158,1.031,10.315,2.149,15.472,3.352c2.234,0.516,2.578,1.547,1.031,3.266
	c-3.094,3.438-6.188,6.791-9.455,10.057c-3.094,3.094-3.782,6.704-3.18,10.83c0.516,4.212,1.118,8.424,1.461,12.721
	c0.258,2.837-0.258,3.181-2.836,2.063c-3.696-1.633-7.393-3.266-11.002-5.071c-4.47-2.321-8.768-2.321-13.151,0
	c-3.438,1.805-7.134,3.267-10.658,4.897c-3.008,1.461-4.04,0.86-3.524-1.375c0.688-5.33,1.203-9.799,1.805-14.183
	c0.516-3.696-0.43-6.876-3.094-9.627c-3.18-3.267-6.361-6.619-9.541-10.057C242.049,234.544,242.393,233.512,244.972,232.911z
	 M201.908,242.709c2.407-0.688,4.899-1.289,7.393-1.805c1.805-0.344,3.18-1.203,4.04-2.836c1.118-1.977,2.235-3.954,3.438-5.845
	c1.547-2.493,2.75-2.493,4.297,0c1.118,1.805,2.235,3.61,3.267,5.501c1.031,1.977,2.665,3.094,4.813,3.524
	c1.891,0.344,3.782,0.773,5.587,1.289c2.836,0.86,3.267,2.149,1.375,4.47c-1.204,1.461-2.407,2.836-3.61,4.212
	c-1.719,1.891-2.321,4.125-1.977,6.705c0.258,1.977,0.43,3.954,0.602,5.931c0.086,1.977-0.86,2.665-2.665,1.977
	c-1.805-0.602-3.524-1.461-5.244-2.321c-2.75-1.375-5.329-1.461-8.08-0.086c-1.805,0.945-3.696,1.891-5.587,2.665
	c-1.977,0.773-2.837,0-2.837-2.321c0.172-1.204,0.344-2.75,0.602-4.212c0.688-3.954-0.516-7.306-3.267-10.143
	c-1.031-1.117-2.235-2.063-3.18-3.266C199.416,244.429,199.76,243.311,201.908,242.709z M325.082,424.505
	c-11.174,0-22.262,0-33.437,0c-5.501,0-11.002,0-16.503,0c0,0,0,0,0-0.086c-16.16,0-32.319,0-48.479,0c-4.556,0-4.556,0-4.556-4.47
	c0-1.722-0.086-3.438,0-5.157c0-2.665,0.602-3.267,3.352-3.267c12.722,0,25.443,0,38.164,0c20.286,0,40.571,0,60.854,0.086
	c3.696,0,3.782,0.086,3.782,3.78c0,1.893,0,3.868,0,5.761C328.349,423.988,327.833,424.505,325.082,424.505z M372.529,372.588
	c-0.258,3.868-1.633,5.243-5.587,5.243c-30.517,0-61.028,0-91.542,0c0,0,0,0,0,0.086c-30.514,0-61.028,0-91.542,0
	c-4.298,0-5.759-1.547-5.759-6.188c0-20.114,0.086-40.313,0.086-60.427c0-6.791,0-13.581,0-20.458c0-5.931,1.203-7.134,7.048-7.134
	c10.143,0,20.2,0,30.342,0c49.682,0,99.45,0,149.132,0c0.602,0,1.203,0,1.892,0c4.813,0,5.933,1.118,6.019,5.931
	c0.086,9.111,0.086,18.136,0.086,27.248c0,17.879,0,35.758,0,53.636C372.529,371.212,372.529,371.9,372.529,372.588z"/>
<path fill="#00F322" d="M299.897,330.899c0-10.572,0-21.145,0-31.717c0-2.493-0.258-2.75-2.665-2.75c-14.612,0-29.311,0-43.923,0
	c-2.579,0-2.836,0.344-2.836,2.836c0,21.059,0,42.032,0,63.091c0,2.578,0.43,3.008,3.008,3.008c14.354,0,28.709,0,43.063,0
	c3.008,0,3.352-0.344,3.352-3.266C299.897,351.7,299.897,341.3,299.897,330.899z M291.989,330.556
	c-4.985,4.298-9.971,8.682-14.87,12.979c-1.204,1.117-2.493,1.031-3.696-0.086c-4.899-4.298-9.799-8.596-14.698-12.979
	c-1.203-1.031-1.461-2.235-0.516-3.61c0.086-0.086,0.172-0.258,0.172-0.344c1.977-4.728,5.243-7.048,10.572-6.36
	c2.149,0.258,4.384,0.086,6.619,0.086l0,0c3.438,0,6.876,0,10.315,0c1.891,0,3.094,0.773,3.954,2.407
	c0.86,1.547,1.719,3.094,2.665,4.641C293.193,328.579,293.021,329.61,291.989,330.556z"/>
<path fill="#00F322" d="M238.955,330.813L238.955,330.813c-0.086-10.658-0.086-21.317,0-31.975c0-1.719-0.43-2.493-2.321-2.493
	c-14.784,0-29.568,0-44.353,0c-1.805,0-2.579,0.688-2.579,2.579c0.086,21.403,0.086,42.719,0,64.123c0,1.719,0.688,2.32,2.321,2.32
	c14.784,0,29.569,0,44.353,0c1.805,0,2.579-0.688,2.579-2.578C238.955,352.13,238.955,341.472,238.955,330.813z M230.445,330.899
	c-4.899,4.212-9.799,8.424-14.698,12.636c-1.289,1.117-2.493,1.031-3.696-0.086c-4.899-4.212-9.799-8.338-14.785-12.55
	c-1.461-1.289-1.547-2.579-0.43-4.126c1.118-1.547,1.977-3.352,3.181-4.813c0.773-0.859,2.063-1.547,3.18-1.633
	c3.524-0.172,6.962-0.086,10.486-0.086l0,0c3.438,0,6.876,0,10.315,0c1.891,0,3.266,0.773,4.211,2.407
	c0.86,1.461,1.891,2.922,2.751,4.383C231.907,328.492,231.735,329.782,230.445,330.899z"/>
<path fill="#00F322" d="M360.839,299.784c0-3.094-0.344-3.438-3.438-3.438c-14.185,0-28.451,0-42.636,0
	c-3.095,0-3.267,0.172-3.267,3.266c0,10.4,0,20.715,0,31.116c0,10.486,0,20.887,0,31.374c0,3.008,0.344,3.266,3.353,3.266
	c14.185,0,28.451,0,42.722,0c2.922,0,3.352-0.43,3.352-3.352c0-6.189-0.086-12.378,0-18.566
	C360.753,328.923,360.839,314.31,360.839,299.784z M353.533,330.813c-4.813,4.126-9.713,8.338-14.526,12.464
	c-1.547,1.375-3.009,1.289-4.556-0.086c-4.729-4.126-9.541-8.252-14.354-12.378c-1.461-1.289-1.633-2.579-0.516-4.126
	c0.516-0.688,1.031-1.289,1.375-2.063c1.547-3.868,4.298-5.071,8.338-4.555c0.344,0,0.604,0.086,0.945,0.086
	c2.233,0.172,4.47,0,6.704,0c3.522,0,6.963,0,10.485,0c1.721,0,2.836,0.602,3.695,2.148c0.86,1.633,1.979,3.181,3.009,4.642
	C354.994,328.492,354.822,329.696,353.533,330.813z"/>
</svg>
